solid OpenSCAD_Model
  facet normal -0.92388 -0.382683 0
    outer loop
      vertex 23.75 0 -2.5
      vertex 23.0178 1.76777 2.5
      vertex 23.0178 1.76777 -2.5
    endloop
  endfacet
  facet normal -0.92388 -0.382683 0
    outer loop
      vertex 23.0178 1.76777 2.5
      vertex 23.75 0 -2.5
      vertex 23.75 0 2.5
    endloop
  endfacet
  facet normal 0.92388 -0.382683 0
    outer loop
      vertex 18.75 0 2.5
      vertex 19.4822 1.76777 -2.5
      vertex 19.4822 1.76777 2.5
    endloop
  endfacet
  facet normal 0.92388 -0.382683 0
    outer loop
      vertex 19.4822 1.76777 -2.5
      vertex 18.75 0 2.5
      vertex 18.75 0 -2.5
    endloop
  endfacet
  facet normal -0.382683 -0.92388 0
    outer loop
      vertex 21.25 2.5 -2.5
      vertex 23.0178 1.76777 2.5
      vertex 21.25 2.5 2.5
    endloop
  endfacet
  facet normal -0.382683 -0.92388 -0
    outer loop
      vertex 23.0178 1.76777 2.5
      vertex 21.25 2.5 -2.5
      vertex 23.0178 1.76777 -2.5
    endloop
  endfacet
  facet normal 0.382683 -0.92388 0
    outer loop
      vertex 19.4822 1.76777 -2.5
      vertex 21.25 2.5 2.5
      vertex 19.4822 1.76777 2.5
    endloop
  endfacet
  facet normal 0.382683 -0.92388 0
    outer loop
      vertex 21.25 2.5 2.5
      vertex 19.4822 1.76777 -2.5
      vertex 21.25 2.5 -2.5
    endloop
  endfacet
  facet normal -0.382683 0.92388 0
    outer loop
      vertex 23.0178 -1.76777 -2.5
      vertex 21.25 -2.5 2.5
      vertex 23.0178 -1.76777 2.5
    endloop
  endfacet
  facet normal -0.382683 0.92388 0
    outer loop
      vertex 21.25 -2.5 2.5
      vertex 23.0178 -1.76777 -2.5
      vertex 21.25 -2.5 -2.5
    endloop
  endfacet
  facet normal 0.92388 0.382683 0
    outer loop
      vertex 19.4822 -1.76777 2.5
      vertex 18.75 0 -2.5
      vertex 18.75 0 2.5
    endloop
  endfacet
  facet normal 0.92388 0.382683 0
    outer loop
      vertex 18.75 0 -2.5
      vertex 19.4822 -1.76777 2.5
      vertex 19.4822 -1.76777 -2.5
    endloop
  endfacet
  facet normal 0.382683 0.92388 -0
    outer loop
      vertex 21.25 -2.5 -2.5
      vertex 19.4822 -1.76777 2.5
      vertex 21.25 -2.5 2.5
    endloop
  endfacet
  facet normal 0.382683 0.92388 0
    outer loop
      vertex 19.4822 -1.76777 2.5
      vertex 21.25 -2.5 -2.5
      vertex 19.4822 -1.76777 -2.5
    endloop
  endfacet
  facet normal -0.92388 0.382683 0
    outer loop
      vertex 23.0178 -1.76777 -2.5
      vertex 23.75 0 2.5
      vertex 23.75 0 -2.5
    endloop
  endfacet
  facet normal -0.92388 0.382683 0
    outer loop
      vertex 23.75 0 2.5
      vertex 23.0178 -1.76777 -2.5
      vertex 23.0178 -1.76777 2.5
    endloop
  endfacet
  facet normal -0.92388 -0.382683 0
    outer loop
      vertex -18.75 0 -2.5
      vertex -19.4822 1.76777 2.5
      vertex -19.4822 1.76777 -2.5
    endloop
  endfacet
  facet normal -0.92388 -0.382683 0
    outer loop
      vertex -19.4822 1.76777 2.5
      vertex -18.75 0 -2.5
      vertex -18.75 0 2.5
    endloop
  endfacet
  facet normal 0.92388 -0.382683 0
    outer loop
      vertex -23.75 0 2.5
      vertex -23.0178 1.76777 -2.5
      vertex -23.0178 1.76777 2.5
    endloop
  endfacet
  facet normal 0.92388 -0.382683 0
    outer loop
      vertex -23.0178 1.76777 -2.5
      vertex -23.75 0 2.5
      vertex -23.75 0 -2.5
    endloop
  endfacet
  facet normal -0.382683 -0.92388 0
    outer loop
      vertex -21.25 2.5 -2.5
      vertex -19.4822 1.76777 2.5
      vertex -21.25 2.5 2.5
    endloop
  endfacet
  facet normal -0.382683 -0.92388 -0
    outer loop
      vertex -19.4822 1.76777 2.5
      vertex -21.25 2.5 -2.5
      vertex -19.4822 1.76777 -2.5
    endloop
  endfacet
  facet normal -0.382683 0.92388 0
    outer loop
      vertex -19.4822 -1.76777 -2.5
      vertex -21.25 -2.5 2.5
      vertex -19.4822 -1.76777 2.5
    endloop
  endfacet
  facet normal -0.382683 0.92388 0
    outer loop
      vertex -21.25 -2.5 2.5
      vertex -19.4822 -1.76777 -2.5
      vertex -21.25 -2.5 -2.5
    endloop
  endfacet
  facet normal 0.382683 -0.92388 0
    outer loop
      vertex -23.0178 1.76777 -2.5
      vertex -21.25 2.5 2.5
      vertex -23.0178 1.76777 2.5
    endloop
  endfacet
  facet normal 0.382683 -0.92388 0
    outer loop
      vertex -21.25 2.5 2.5
      vertex -23.0178 1.76777 -2.5
      vertex -21.25 2.5 -2.5
    endloop
  endfacet
  facet normal -0.92388 0.382683 0
    outer loop
      vertex -19.4822 -1.76777 -2.5
      vertex -18.75 0 2.5
      vertex -18.75 0 -2.5
    endloop
  endfacet
  facet normal -0.92388 0.382683 0
    outer loop
      vertex -18.75 0 2.5
      vertex -19.4822 -1.76777 -2.5
      vertex -19.4822 -1.76777 2.5
    endloop
  endfacet
  facet normal 0.382683 0.92388 -0
    outer loop
      vertex -21.25 -2.5 -2.5
      vertex -23.0178 -1.76777 2.5
      vertex -21.25 -2.5 2.5
    endloop
  endfacet
  facet normal 0.382683 0.92388 0
    outer loop
      vertex -23.0178 -1.76777 2.5
      vertex -21.25 -2.5 -2.5
      vertex -23.0178 -1.76777 -2.5
    endloop
  endfacet
  facet normal 0.92388 0.382683 0
    outer loop
      vertex -23.0178 -1.76777 2.5
      vertex -23.75 0 -2.5
      vertex -23.75 0 2.5
    endloop
  endfacet
  facet normal 0.92388 0.382683 0
    outer loop
      vertex -23.75 0 -2.5
      vertex -23.0178 -1.76777 2.5
      vertex -23.0178 -1.76777 -2.5
    endloop
  endfacet
  facet normal -0.92388 -0.382683 0
    outer loop
      vertex 33.75 0 -2.5
      vertex 33.0178 1.76777 2.5
      vertex 33.0178 1.76777 -2.5
    endloop
  endfacet
  facet normal -0.92388 -0.382683 0
    outer loop
      vertex 33.0178 1.76777 2.5
      vertex 33.75 0 -2.5
      vertex 33.75 0 2.5
    endloop
  endfacet
  facet normal 0.382683 -0.92388 0
    outer loop
      vertex 29.4822 1.76777 -2.5
      vertex 31.25 2.5 2.5
      vertex 29.4822 1.76777 2.5
    endloop
  endfacet
  facet normal 0.382683 -0.92388 0
    outer loop
      vertex 31.25 2.5 2.5
      vertex 29.4822 1.76777 -2.5
      vertex 31.25 2.5 -2.5
    endloop
  endfacet
  facet normal -0.382683 -0.92388 0
    outer loop
      vertex 31.25 2.5 -2.5
      vertex 33.0178 1.76777 2.5
      vertex 31.25 2.5 2.5
    endloop
  endfacet
  facet normal -0.382683 -0.92388 -0
    outer loop
      vertex 33.0178 1.76777 2.5
      vertex 31.25 2.5 -2.5
      vertex 33.0178 1.76777 -2.5
    endloop
  endfacet
  facet normal 0.92388 -0.382683 0
    outer loop
      vertex 28.75 0 2.5
      vertex 29.4822 1.76777 -2.5
      vertex 29.4822 1.76777 2.5
    endloop
  endfacet
  facet normal 0.92388 -0.382683 0
    outer loop
      vertex 29.4822 1.76777 -2.5
      vertex 28.75 0 2.5
      vertex 28.75 0 -2.5
    endloop
  endfacet
  facet normal 0.92388 0.382683 0
    outer loop
      vertex 29.4822 -1.76777 2.5
      vertex 28.75 0 -2.5
      vertex 28.75 0 2.5
    endloop
  endfacet
  facet normal 0.92388 0.382683 0
    outer loop
      vertex 28.75 0 -2.5
      vertex 29.4822 -1.76777 2.5
      vertex 29.4822 -1.76777 -2.5
    endloop
  endfacet
  facet normal -0.382683 0.92388 0
    outer loop
      vertex 33.0178 -1.76777 -2.5
      vertex 31.25 -2.5 2.5
      vertex 33.0178 -1.76777 2.5
    endloop
  endfacet
  facet normal -0.382683 0.92388 0
    outer loop
      vertex 31.25 -2.5 2.5
      vertex 33.0178 -1.76777 -2.5
      vertex 31.25 -2.5 -2.5
    endloop
  endfacet
  facet normal 0.382683 0.92388 -0
    outer loop
      vertex 31.25 -2.5 -2.5
      vertex 29.4822 -1.76777 2.5
      vertex 31.25 -2.5 2.5
    endloop
  endfacet
  facet normal 0.382683 0.92388 0
    outer loop
      vertex 29.4822 -1.76777 2.5
      vertex 31.25 -2.5 -2.5
      vertex 29.4822 -1.76777 -2.5
    endloop
  endfacet
  facet normal -0.92388 0.382683 0
    outer loop
      vertex 33.0178 -1.76777 -2.5
      vertex 33.75 0 2.5
      vertex 33.75 0 -2.5
    endloop
  endfacet
  facet normal -0.92388 0.382683 0
    outer loop
      vertex 33.75 0 2.5
      vertex 33.0178 -1.76777 -2.5
      vertex 33.0178 -1.76777 2.5
    endloop
  endfacet
  facet normal -0.92388 -0.382683 0
    outer loop
      vertex -28.75 0 -2.5
      vertex -29.4822 1.76777 2.5
      vertex -29.4822 1.76777 -2.5
    endloop
  endfacet
  facet normal -0.92388 -0.382683 0
    outer loop
      vertex -29.4822 1.76777 2.5
      vertex -28.75 0 -2.5
      vertex -28.75 0 2.5
    endloop
  endfacet
  facet normal 0.92388 -0.382683 0
    outer loop
      vertex -33.75 0 2.5
      vertex -33.0178 1.76777 -2.5
      vertex -33.0178 1.76777 2.5
    endloop
  endfacet
  facet normal 0.92388 -0.382683 0
    outer loop
      vertex -33.0178 1.76777 -2.5
      vertex -33.75 0 2.5
      vertex -33.75 0 -2.5
    endloop
  endfacet
  facet normal -0.382683 -0.92388 0
    outer loop
      vertex -31.25 2.5 -2.5
      vertex -29.4822 1.76777 2.5
      vertex -31.25 2.5 2.5
    endloop
  endfacet
  facet normal -0.382683 -0.92388 -0
    outer loop
      vertex -29.4822 1.76777 2.5
      vertex -31.25 2.5 -2.5
      vertex -29.4822 1.76777 -2.5
    endloop
  endfacet
  facet normal -0.382683 0.92388 0
    outer loop
      vertex -29.4822 -1.76777 -2.5
      vertex -31.25 -2.5 2.5
      vertex -29.4822 -1.76777 2.5
    endloop
  endfacet
  facet normal -0.382683 0.92388 0
    outer loop
      vertex -31.25 -2.5 2.5
      vertex -29.4822 -1.76777 -2.5
      vertex -31.25 -2.5 -2.5
    endloop
  endfacet
  facet normal 0.382683 -0.92388 0
    outer loop
      vertex -33.0178 1.76777 -2.5
      vertex -31.25 2.5 2.5
      vertex -33.0178 1.76777 2.5
    endloop
  endfacet
  facet normal 0.382683 -0.92388 0
    outer loop
      vertex -31.25 2.5 2.5
      vertex -33.0178 1.76777 -2.5
      vertex -31.25 2.5 -2.5
    endloop
  endfacet
  facet normal -0.92388 0.382683 0
    outer loop
      vertex -29.4822 -1.76777 -2.5
      vertex -28.75 0 2.5
      vertex -28.75 0 -2.5
    endloop
  endfacet
  facet normal -0.92388 0.382683 0
    outer loop
      vertex -28.75 0 2.5
      vertex -29.4822 -1.76777 -2.5
      vertex -29.4822 -1.76777 2.5
    endloop
  endfacet
  facet normal 0.382683 0.92388 -0
    outer loop
      vertex -31.25 -2.5 -2.5
      vertex -33.0178 -1.76777 2.5
      vertex -31.25 -2.5 2.5
    endloop
  endfacet
  facet normal 0.382683 0.92388 0
    outer loop
      vertex -33.0178 -1.76777 2.5
      vertex -31.25 -2.5 -2.5
      vertex -33.0178 -1.76777 -2.5
    endloop
  endfacet
  facet normal 0.92388 0.382683 0
    outer loop
      vertex -33.0178 -1.76777 2.5
      vertex -33.75 0 -2.5
      vertex -33.75 0 2.5
    endloop
  endfacet
  facet normal 0.92388 0.382683 0
    outer loop
      vertex -33.75 0 -2.5
      vertex -33.0178 -1.76777 2.5
      vertex -33.0178 -1.76777 -2.5
    endloop
  endfacet
  facet normal 0.994522 0.104529 0
    outer loop
      vertex 37.5 0 2.5
      vertex 37.2268 2.5989 -2.5
      vertex 37.2268 2.5989 2.5
    endloop
  endfacet
  facet normal 0.994522 0.104529 0
    outer loop
      vertex 37.2268 2.5989 -2.5
      vertex 37.5 0 2.5
      vertex 37.5 0 -2.5
    endloop
  endfacet
  facet normal 0 1 -0
    outer loop
      vertex -12.4315 12.4315 -2.5
      vertex -26.3066 12.4315 2.5
      vertex -12.4315 12.4315 2.5
    endloop
  endfacet
  facet normal 0 1 0
    outer loop
      vertex -26.3066 12.4315 2.5
      vertex -12.4315 12.4315 -2.5
      vertex -26.3066 12.4315 -2.5
    endloop
  endfacet
  facet normal 0 1 -0
    outer loop
      vertex 26.3066 12.4315 -2.5
      vertex 12.4315 12.4315 2.5
      vertex 26.3066 12.4315 2.5
    endloop
  endfacet
  facet normal 0 1 0
    outer loop
      vertex 12.4315 12.4315 2.5
      vertex 26.3066 12.4315 -2.5
      vertex 12.4315 12.4315 -2.5
    endloop
  endfacet
  facet normal -0.207912 -0.978148 0
    outer loop
      vertex -28.8627 -11.8882 -2.5
      vertex -26.3066 -12.4315 2.5
      vertex -28.8627 -11.8882 2.5
    endloop
  endfacet
  facet normal -0.207912 -0.978148 -0
    outer loop
      vertex -26.3066 -12.4315 2.5
      vertex -28.8627 -11.8882 -2.5
      vertex -26.3066 -12.4315 -2.5
    endloop
  endfacet
  facet normal 0.207912 0.978148 -0
    outer loop
      vertex 28.8627 11.8882 -2.5
      vertex 26.3066 12.4315 2.5
      vertex 28.8627 11.8882 2.5
    endloop
  endfacet
  facet normal 0.207912 0.978148 0
    outer loop
      vertex 26.3066 12.4315 2.5
      vertex 28.8627 11.8882 -2.5
      vertex 26.3066 12.4315 -2.5
    endloop
  endfacet
  facet normal -0.743145 0.669131 0
    outer loop
      vertex -35.1127 7.34731 -2.5
      vertex -33.3641 9.28931 2.5
      vertex -33.3641 9.28931 -2.5
    endloop
  endfacet
  facet normal -0.743145 0.669131 0
    outer loop
      vertex -33.3641 9.28931 2.5
      vertex -35.1127 7.34731 -2.5
      vertex -35.1127 7.34731 2.5
    endloop
  endfacet
  facet normal -0.406736 0.913546 0
    outer loop
      vertex -28.8627 11.8882 -2.5
      vertex -31.25 10.8253 2.5
      vertex -28.8627 11.8882 2.5
    endloop
  endfacet
  facet normal -0.406736 0.913546 0
    outer loop
      vertex -31.25 10.8253 2.5
      vertex -28.8627 11.8882 -2.5
      vertex -31.25 10.8253 -2.5
    endloop
  endfacet
  facet normal 0.866025 -0.5 0
    outer loop
      vertex 35.1127 -7.34731 2.5
      vertex 36.4193 -5.08421 -2.5
      vertex 36.4193 -5.08421 2.5
    endloop
  endfacet
  facet normal 0.866025 -0.5 0
    outer loop
      vertex 36.4193 -5.08421 -2.5
      vertex 35.1127 -7.34731 2.5
      vertex 35.1127 -7.34731 -2.5
    endloop
  endfacet
  facet normal 0 -1 0
    outer loop
      vertex 12.4315 -12.4315 -2.5
      vertex 26.3066 -12.4315 2.5
      vertex 12.4315 -12.4315 2.5
    endloop
  endfacet
  facet normal 0 -1 -0
    outer loop
      vertex 26.3066 -12.4315 2.5
      vertex 12.4315 -12.4315 -2.5
      vertex 26.3066 -12.4315 -2.5
    endloop
  endfacet
  facet normal 0 -1 0
    outer loop
      vertex -26.3066 -12.4315 -2.5
      vertex -12.4315 -12.4315 2.5
      vertex -26.3066 -12.4315 2.5
    endloop
  endfacet
  facet normal 0 -1 -0
    outer loop
      vertex -12.4315 -12.4315 2.5
      vertex -26.3066 -12.4315 -2.5
      vertex -12.4315 -12.4315 -2.5
    endloop
  endfacet
  facet normal -0.743145 -0.669131 0
    outer loop
      vertex -33.3641 -9.28931 -2.5
      vertex -35.1127 -7.34731 2.5
      vertex -35.1127 -7.34731 -2.5
    endloop
  endfacet
  facet normal -0.743145 -0.669131 0
    outer loop
      vertex -35.1127 -7.34731 2.5
      vertex -33.3641 -9.28931 -2.5
      vertex -33.3641 -9.28931 2.5
    endloop
  endfacet
  facet normal 0.743145 0.669131 0
    outer loop
      vertex 35.1127 7.34731 2.5
      vertex 33.3641 9.28931 -2.5
      vertex 33.3641 9.28931 2.5
    endloop
  endfacet
  facet normal 0.743145 0.669131 0
    outer loop
      vertex 33.3641 9.28931 -2.5
      vertex 35.1127 7.34731 2.5
      vertex 35.1127 7.34731 -2.5
    endloop
  endfacet
  facet normal 0.951057 0.309017 0
    outer loop
      vertex 37.2268 2.5989 2.5
      vertex 36.4193 5.08421 -2.5
      vertex 36.4193 5.08421 2.5
    endloop
  endfacet
  facet normal 0.951057 0.309017 0
    outer loop
      vertex 36.4193 5.08421 -2.5
      vertex 37.2268 2.5989 2.5
      vertex 37.2268 2.5989 -2.5
    endloop
  endfacet
  facet normal 0.587786 0.809017 -0
    outer loop
      vertex 33.3641 9.28931 -2.5
      vertex 31.25 10.8253 2.5
      vertex 33.3641 9.28931 2.5
    endloop
  endfacet
  facet normal 0.587786 0.809017 0
    outer loop
      vertex 31.25 10.8253 2.5
      vertex 33.3641 9.28931 -2.5
      vertex 31.25 10.8253 -2.5
    endloop
  endfacet
  facet normal -0.951057 0.309017 0
    outer loop
      vertex -37.2268 2.5989 -2.5
      vertex -36.4193 5.08421 2.5
      vertex -36.4193 5.08421 -2.5
    endloop
  endfacet
  facet normal -0.951057 0.309017 0
    outer loop
      vertex -36.4193 5.08421 2.5
      vertex -37.2268 2.5989 -2.5
      vertex -37.2268 2.5989 2.5
    endloop
  endfacet
  facet normal 0 0 -1
    outer loop
      vertex -23.0178 1.76777 -2.5
      vertex -28.8627 11.8882 -2.5
      vertex -26.3066 12.4315 -2.5
    endloop
  endfacet
  facet normal 0 0 -1
    outer loop
      vertex -23.0178 1.76777 -2.5
      vertex -29.4822 1.76777 -2.5
      vertex -28.8627 11.8882 -2.5
    endloop
  endfacet
  facet normal 0 0 -1
    outer loop
      vertex -31.25 10.8253 -2.5
      vertex -29.4822 1.76777 -2.5
      vertex -31.25 2.5 -2.5
    endloop
  endfacet
  facet normal 0 0 -1
    outer loop
      vertex -29.4822 1.76777 -2.5
      vertex -31.25 10.8253 -2.5
      vertex -28.8627 11.8882 -2.5
    endloop
  endfacet
  facet normal 0 0 -1
    outer loop
      vertex -35.1127 7.34731 -2.5
      vertex -31.25 2.5 -2.5
      vertex -33.0178 1.76777 -2.5
    endloop
  endfacet
  facet normal 0 0 -1
    outer loop
      vertex -31.25 2.5 -2.5
      vertex -33.3641 9.28931 -2.5
      vertex -31.25 10.8253 -2.5
    endloop
  endfacet
  facet normal 0 0 -1
    outer loop
      vertex -37.2268 2.5989 -2.5
      vertex -33.0178 1.76777 -2.5
      vertex -33.75 0 -2.5
    endloop
  endfacet
  facet normal 0 0 -1
    outer loop
      vertex -37.2268 -2.5989 -2.5
      vertex -33.0178 -1.76777 -2.5
      vertex -36.4193 -5.08421 -2.5
    endloop
  endfacet
  facet normal 0 0 -1
    outer loop
      vertex -31.25 2.5 -2.5
      vertex -35.1127 7.34731 -2.5
      vertex -33.3641 9.28931 -2.5
    endloop
  endfacet
  facet normal -0 0 -1
    outer loop
      vertex -33.0178 -1.76777 -2.5
      vertex -37.2268 -2.5989 -2.5
      vertex -33.75 0 -2.5
    endloop
  endfacet
  facet normal 0 0 -1
    outer loop
      vertex -33.0178 1.76777 -2.5
      vertex -36.4193 5.08421 -2.5
      vertex -35.1127 7.34731 -2.5
    endloop
  endfacet
  facet normal 0 0 -1
    outer loop
      vertex -37.5 0 -2.5
      vertex -33.75 0 -2.5
      vertex -37.2268 -2.5989 -2.5
    endloop
  endfacet
  facet normal 0 0 -1
    outer loop
      vertex -33.0178 1.76777 -2.5
      vertex -37.2268 2.5989 -2.5
      vertex -36.4193 5.08421 -2.5
    endloop
  endfacet
  facet normal 0 0 -1
    outer loop
      vertex -33.75 0 -2.5
      vertex -37.5 0 -2.5
      vertex -37.2268 2.5989 -2.5
    endloop
  endfacet
  facet normal 0 0 -1
    outer loop
      vertex -12.4315 -12.4315 -2.5
      vertex -18.75 0 -2.5
      vertex -12.4315 12.4315 -2.5
    endloop
  endfacet
  facet normal 0 0 -1
    outer loop
      vertex -12.4315 -12.4315 -2.5
      vertex -19.4822 -1.76777 -2.5
      vertex -18.75 0 -2.5
    endloop
  endfacet
  facet normal 0 0 -1
    outer loop
      vertex -12.4315 -12.4315 -2.5
      vertex -21.25 -2.5 -2.5
      vertex -19.4822 -1.76777 -2.5
    endloop
  endfacet
  facet normal 0 0 -1
    outer loop
      vertex -26.3066 -12.4315 -2.5
      vertex -21.25 -2.5 -2.5
      vertex -12.4315 -12.4315 -2.5
    endloop
  endfacet
  facet normal 0 0 -1
    outer loop
      vertex -29.4822 -1.76777 -2.5
      vertex -23.0178 -1.76777 -2.5
      vertex -26.3066 -12.4315 -2.5
    endloop
  endfacet
  facet normal -0 0 -1
    outer loop
      vertex -21.25 -2.5 -2.5
      vertex -26.3066 -12.4315 -2.5
      vertex -23.0178 -1.76777 -2.5
    endloop
  endfacet
  facet normal 0 0 -1
    outer loop
      vertex -19.4822 1.76777 -2.5
      vertex -12.4315 12.4315 -2.5
      vertex -18.75 0 -2.5
    endloop
  endfacet
  facet normal 0 0 -1
    outer loop
      vertex -21.25 2.5 -2.5
      vertex -12.4315 12.4315 -2.5
      vertex -19.4822 1.76777 -2.5
    endloop
  endfacet
  facet normal 0 0 -1
    outer loop
      vertex -26.3066 12.4315 -2.5
      vertex -21.25 2.5 -2.5
      vertex -23.0178 1.76777 -2.5
    endloop
  endfacet
  facet normal 0 0 -1
    outer loop
      vertex -21.25 2.5 -2.5
      vertex -26.3066 12.4315 -2.5
      vertex -12.4315 12.4315 -2.5
    endloop
  endfacet
  facet normal 0 0 -1
    outer loop
      vertex -28.75 0 -2.5
      vertex -23.0178 1.76777 -2.5
      vertex -23.75 0 -2.5
    endloop
  endfacet
  facet normal 0 0 -1
    outer loop
      vertex -23.0178 -1.76777 -2.5
      vertex -29.4822 -1.76777 -2.5
      vertex -23.75 0 -2.5
    endloop
  endfacet
  facet normal 0 0 -1
    outer loop
      vertex -29.4822 1.76777 -2.5
      vertex -23.0178 1.76777 -2.5
      vertex -28.75 0 -2.5
    endloop
  endfacet
  facet normal 0 0 -1
    outer loop
      vertex -29.4822 -1.76777 -2.5
      vertex -26.3066 -12.4315 -2.5
      vertex -28.8627 -11.8882 -2.5
    endloop
  endfacet
  facet normal -0 0 -1
    outer loop
      vertex -23.75 0 -2.5
      vertex -29.4822 -1.76777 -2.5
      vertex -28.75 0 -2.5
    endloop
  endfacet
  facet normal 0 0 -1
    outer loop
      vertex -31.25 -10.8253 -2.5
      vertex -29.4822 -1.76777 -2.5
      vertex -28.8627 -11.8882 -2.5
    endloop
  endfacet
  facet normal 0 0 -1
    outer loop
      vertex -31.25 -10.8253 -2.5
      vertex -31.25 -2.5 -2.5
      vertex -29.4822 -1.76777 -2.5
    endloop
  endfacet
  facet normal 0 0 -1
    outer loop
      vertex -33.3641 -9.28931 -2.5
      vertex -31.25 -2.5 -2.5
      vertex -31.25 -10.8253 -2.5
    endloop
  endfacet
  facet normal 0 0 -1
    outer loop
      vertex -35.1127 -7.34731 -2.5
      vertex -31.25 -2.5 -2.5
      vertex -33.3641 -9.28931 -2.5
    endloop
  endfacet
  facet normal -0 0 -1
    outer loop
      vertex -31.25 -2.5 -2.5
      vertex -35.1127 -7.34731 -2.5
      vertex -33.0178 -1.76777 -2.5
    endloop
  endfacet
  facet normal 0 0 -1
    outer loop
      vertex -36.4193 -5.08421 -2.5
      vertex -33.0178 -1.76777 -2.5
      vertex -35.1127 -7.34731 -2.5
    endloop
  endfacet
  facet normal 0 0 -1
    outer loop
      vertex 12.4315 26.3066 -2.5
      vertex 1.76777 29.4822 -2.5
      vertex 11.8882 28.8627 -2.5
    endloop
  endfacet
  facet normal 0 0 -1
    outer loop
      vertex 11.8882 28.8627 -2.5
      vertex 1.76777 29.4822 -2.5
      vertex 2.5 31.25 -2.5
    endloop
  endfacet
  facet normal 0 0 -1
    outer loop
      vertex 1.76777 23.0178 -2.5
      vertex 6.38378e-15 28.75 -2.5
      vertex 1.76777 29.4822 -2.5
    endloop
  endfacet
  facet normal 0 0 -1
    outer loop
      vertex 5.27356e-15 23.75 -2.5
      vertex 6.38378e-15 28.75 -2.5
      vertex 1.76777 23.0178 -2.5
    endloop
  endfacet
  facet normal 0 0 -1
    outer loop
      vertex -1.76777 23.0178 -2.5
      vertex 6.38378e-15 28.75 -2.5
      vertex 5.27356e-15 23.75 -2.5
    endloop
  endfacet
  facet normal 0 0 -1
    outer loop
      vertex -1.76777 23.0178 -2.5
      vertex -1.76777 29.4822 -2.5
      vertex 6.38378e-15 28.75 -2.5
    endloop
  endfacet
  facet normal 0 0 -1
    outer loop
      vertex -12.4315 26.3066 -2.5
      vertex -1.76777 23.0178 -2.5
      vertex -2.5 21.25 -2.5
    endloop
  endfacet
  facet normal 0 0 -1
    outer loop
      vertex -1.76777 23.0178 -2.5
      vertex -12.4315 26.3066 -2.5
      vertex -1.76777 29.4822 -2.5
    endloop
  endfacet
  facet normal 0 0 -1
    outer loop
      vertex -12.4315 -12.4315 -2.5
      vertex 12.4315 -12.4315 -2.5
      vertex -4.16334e-15 -18.75 -2.5
    endloop
  endfacet
  facet normal 0 0 -1
    outer loop
      vertex 12.4315 12.4315 -2.5
      vertex 1.76777 19.4822 -2.5
      vertex 2.5 21.25 -2.5
    endloop
  endfacet
  facet normal 0 0 -1
    outer loop
      vertex 12.4315 12.4315 -2.5
      vertex 4.16334e-15 18.75 -2.5
      vertex 1.76777 19.4822 -2.5
    endloop
  endfacet
  facet normal 0 0 -1
    outer loop
      vertex 12.4315 -12.4315 -2.5
      vertex -12.4315 -12.4315 -2.5
      vertex 12.4315 12.4315 -2.5
    endloop
  endfacet
  facet normal 0 0 -1
    outer loop
      vertex -12.4315 -12.4315 -2.5
      vertex -4.16334e-15 -18.75 -2.5
      vertex -1.76777 -19.4822 -2.5
    endloop
  endfacet
  facet normal 0 0 -1
    outer loop
      vertex -12.4315 12.4315 -2.5
      vertex 12.4315 12.4315 -2.5
      vertex -12.4315 -12.4315 -2.5
    endloop
  endfacet
  facet normal 0 0 -1
    outer loop
      vertex -12.4315 -12.4315 -2.5
      vertex -1.76777 -19.4822 -2.5
      vertex -2.5 -21.25 -2.5
    endloop
  endfacet
  facet normal 0 0 -1
    outer loop
      vertex 12.4315 12.4315 -2.5
      vertex -12.4315 12.4315 -2.5
      vertex 4.16334e-15 18.75 -2.5
    endloop
  endfacet
  facet normal 0 0 -1
    outer loop
      vertex 1.76777 -23.0178 -2.5
      vertex 12.4315 -26.3066 -2.5
      vertex 1.76777 -29.4822 -2.5
    endloop
  endfacet
  facet normal 0 0 -1
    outer loop
      vertex 12.4315 -26.3066 -2.5
      vertex 1.76777 -23.0178 -2.5
      vertex 2.5 -21.25 -2.5
    endloop
  endfacet
  facet normal 0 0 -1
    outer loop
      vertex 1.76777 -29.4822 -2.5
      vertex -5.27356e-15 -23.75 -2.5
      vertex 1.76777 -23.0178 -2.5
    endloop
  endfacet
  facet normal 0 0 -1
    outer loop
      vertex -6.38378e-15 -28.75 -2.5
      vertex -5.27356e-15 -23.75 -2.5
      vertex 1.76777 -29.4822 -2.5
    endloop
  endfacet
  facet normal 0 0 -1
    outer loop
      vertex -1.76777 -29.4822 -2.5
      vertex -5.27356e-15 -23.75 -2.5
      vertex -6.38378e-15 -28.75 -2.5
    endloop
  endfacet
  facet normal 0 0 -1
    outer loop
      vertex -1.76777 -29.4822 -2.5
      vertex -1.76777 -23.0178 -2.5
      vertex -5.27356e-15 -23.75 -2.5
    endloop
  endfacet
  facet normal 0 0 -1
    outer loop
      vertex -10.8253 -31.25 -2.5
      vertex -1.76777 -29.4822 -2.5
      vertex -2.5 -31.25 -2.5
    endloop
  endfacet
  facet normal 0 0 -1
    outer loop
      vertex -12.4315 -26.3066 -2.5
      vertex -1.76777 -29.4822 -2.5
      vertex -11.8882 -28.8627 -2.5
    endloop
  endfacet
  facet normal 0 0 -1
    outer loop
      vertex 2.5 -21.25 -2.5
      vertex 12.4315 -12.4315 -2.5
      vertex 12.4315 -26.3066 -2.5
    endloop
  endfacet
  facet normal 0 0 -1
    outer loop
      vertex 1.76777 -19.4822 -2.5
      vertex 12.4315 -12.4315 -2.5
      vertex 2.5 -21.25 -2.5
    endloop
  endfacet
  facet normal 0 0 -1
    outer loop
      vertex 10.8253 -31.25 -2.5
      vertex 1.76777 -29.4822 -2.5
      vertex 11.8882 -28.8627 -2.5
    endloop
  endfacet
  facet normal 0 0 -1
    outer loop
      vertex -4.16334e-15 -18.75 -2.5
      vertex 12.4315 -12.4315 -2.5
      vertex 1.76777 -19.4822 -2.5
    endloop
  endfacet
  facet normal 0 0 -1
    outer loop
      vertex 1.76777 -29.4822 -2.5
      vertex 10.8253 -31.25 -2.5
      vertex 2.5 -31.25 -2.5
    endloop
  endfacet
  facet normal 0 0 -1
    outer loop
      vertex 12.4315 12.4315 -2.5
      vertex 2.5 21.25 -2.5
      vertex 12.4315 26.3066 -2.5
    endloop
  endfacet
  facet normal 0 0 -1
    outer loop
      vertex 2.5 -31.25 -2.5
      vertex 10.8253 -31.25 -2.5
      vertex 9.28931 -33.3641 -2.5
    endloop
  endfacet
  facet normal 0 0 -1
    outer loop
      vertex 1.76777 23.0178 -2.5
      vertex 12.4315 26.3066 -2.5
      vertex 2.5 21.25 -2.5
    endloop
  endfacet
  facet normal 0 0 -1
    outer loop
      vertex 2.5 -31.25 -2.5
      vertex 9.28931 -33.3641 -2.5
      vertex 7.34731 -35.1127 -2.5
    endloop
  endfacet
  facet normal 0 0 -1
    outer loop
      vertex 1.76777 29.4822 -2.5
      vertex 12.4315 26.3066 -2.5
      vertex 1.76777 23.0178 -2.5
    endloop
  endfacet
  facet normal 0 0 -1
    outer loop
      vertex 1.76777 -33.0178 -2.5
      vertex 7.34731 -35.1127 -2.5
      vertex 5.08421 -36.4193 -2.5
    endloop
  endfacet
  facet normal 0 0 -1
    outer loop
      vertex 11.8882 28.8627 -2.5
      vertex 2.5 31.25 -2.5
      vertex 10.8253 31.25 -2.5
    endloop
  endfacet
  facet normal 0 0 -1
    outer loop
      vertex 1.76777 -33.0178 -2.5
      vertex 5.08421 -36.4193 -2.5
      vertex 2.5989 -37.2268 -2.5
    endloop
  endfacet
  facet normal 0 0 -1
    outer loop
      vertex 10.8253 31.25 -2.5
      vertex 2.5 31.25 -2.5
      vertex 9.28931 33.3641 -2.5
    endloop
  endfacet
  facet normal -0 0 -1
    outer loop
      vertex 11.8882 -28.8627 -2.5
      vertex 1.76777 -29.4822 -2.5
      vertex 12.4315 -26.3066 -2.5
    endloop
  endfacet
  facet normal 0 0 -1
    outer loop
      vertex 7.34731 -35.1127 -2.5
      vertex 1.76777 -33.0178 -2.5
      vertex 2.5 -31.25 -2.5
    endloop
  endfacet
  facet normal 0 0 -1
    outer loop
      vertex 2.5989 -37.2268 -2.5
      vertex -7.49401e-15 -33.75 -2.5
      vertex 1.76777 -33.0178 -2.5
    endloop
  endfacet
  facet normal 0 0 -1
    outer loop
      vertex -8.32667e-15 -37.5 -2.5
      vertex -7.49401e-15 -33.75 -2.5
      vertex 2.5989 -37.2268 -2.5
    endloop
  endfacet
  facet normal 0 0 -1
    outer loop
      vertex -2.5989 -37.2268 -2.5
      vertex -7.49401e-15 -33.75 -2.5
      vertex -8.32667e-15 -37.5 -2.5
    endloop
  endfacet
  facet normal -0 0 -1
    outer loop
      vertex -7.49401e-15 -33.75 -2.5
      vertex -2.5989 -37.2268 -2.5
      vertex -1.76777 -33.0178 -2.5
    endloop
  endfacet
  facet normal -0 0 -1
    outer loop
      vertex -1.76777 -23.0178 -2.5
      vertex -12.4315 -26.3066 -2.5
      vertex -2.5 -21.25 -2.5
    endloop
  endfacet
  facet normal -0 0 -1
    outer loop
      vertex 4.16334e-15 18.75 -2.5
      vertex -12.4315 12.4315 -2.5
      vertex -1.76777 19.4822 -2.5
    endloop
  endfacet
  facet normal 0 0 -1
    outer loop
      vertex -7.34731 -35.1127 -2.5
      vertex -1.76777 -33.0178 -2.5
      vertex -5.08421 -36.4193 -2.5
    endloop
  endfacet
  facet normal 0 0 -1
    outer loop
      vertex -5.08421 -36.4193 -2.5
      vertex -1.76777 -33.0178 -2.5
      vertex -2.5989 -37.2268 -2.5
    endloop
  endfacet
  facet normal -0 0 -1
    outer loop
      vertex 9.28931 33.3641 -2.5
      vertex 2.5 31.25 -2.5
      vertex 7.34731 35.1127 -2.5
    endloop
  endfacet
  facet normal 0 0 -1
    outer loop
      vertex 1.76777 33.0178 -2.5
      vertex 7.34731 35.1127 -2.5
      vertex 2.5 31.25 -2.5
    endloop
  endfacet
  facet normal -0 0 -1
    outer loop
      vertex 7.34731 35.1127 -2.5
      vertex 1.76777 33.0178 -2.5
      vertex 5.08421 36.4193 -2.5
    endloop
  endfacet
  facet normal -0 0 -1
    outer loop
      vertex 5.08421 36.4193 -2.5
      vertex 1.76777 33.0178 -2.5
      vertex 2.5989 37.2268 -2.5
    endloop
  endfacet
  facet normal 0 0 -1
    outer loop
      vertex 7.49401e-15 33.75 -2.5
      vertex 2.5989 37.2268 -2.5
      vertex 1.76777 33.0178 -2.5
    endloop
  endfacet
  facet normal -0 0 -1
    outer loop
      vertex 2.5989 37.2268 -2.5
      vertex 7.49401e-15 33.75 -2.5
      vertex 8.32667e-15 37.5 -2.5
    endloop
  endfacet
  facet normal 0 0 -1
    outer loop
      vertex -2.5989 37.2268 -2.5
      vertex 7.49401e-15 33.75 -2.5
      vertex -1.76777 33.0178 -2.5
    endloop
  endfacet
  facet normal 0 0 -1
    outer loop
      vertex -7.34731 35.1127 -2.5
      vertex -1.76777 33.0178 -2.5
      vertex -2.5 31.25 -2.5
    endloop
  endfacet
  facet normal 0 0 -1
    outer loop
      vertex 7.49401e-15 33.75 -2.5
      vertex -2.5989 37.2268 -2.5
      vertex 8.32667e-15 37.5 -2.5
    endloop
  endfacet
  facet normal -0 0 -1
    outer loop
      vertex -1.76777 19.4822 -2.5
      vertex -12.4315 12.4315 -2.5
      vertex -2.5 21.25 -2.5
    endloop
  endfacet
  facet normal -0 0 -1
    outer loop
      vertex -1.76777 -33.0178 -2.5
      vertex -7.34731 -35.1127 -2.5
      vertex -2.5 -31.25 -2.5
    endloop
  endfacet
  facet normal 0 0 -1
    outer loop
      vertex -12.4315 26.3066 -2.5
      vertex -2.5 21.25 -2.5
      vertex -12.4315 12.4315 -2.5
    endloop
  endfacet
  facet normal 0 0 -1
    outer loop
      vertex -9.28931 -33.3641 -2.5
      vertex -2.5 -31.25 -2.5
      vertex -7.34731 -35.1127 -2.5
    endloop
  endfacet
  facet normal 0 -0 -1
    outer loop
      vertex -11.8882 28.8627 -2.5
      vertex -1.76777 29.4822 -2.5
      vertex -12.4315 26.3066 -2.5
    endloop
  endfacet
  facet normal 0 0 -1
    outer loop
      vertex -10.8253 -31.25 -2.5
      vertex -2.5 -31.25 -2.5
      vertex -9.28931 -33.3641 -2.5
    endloop
  endfacet
  facet normal 0 -0 -1
    outer loop
      vertex -10.8253 31.25 -2.5
      vertex -1.76777 29.4822 -2.5
      vertex -11.8882 28.8627 -2.5
    endloop
  endfacet
  facet normal -0 0 -1
    outer loop
      vertex -1.76777 -29.4822 -2.5
      vertex -10.8253 -31.25 -2.5
      vertex -11.8882 -28.8627 -2.5
    endloop
  endfacet
  facet normal 0 0 -1
    outer loop
      vertex -1.76777 33.0178 -2.5
      vertex -5.08421 36.4193 -2.5
      vertex -2.5989 37.2268 -2.5
    endloop
  endfacet
  facet normal 0 0 -1
    outer loop
      vertex -1.76777 -29.4822 -2.5
      vertex -12.4315 -26.3066 -2.5
      vertex -1.76777 -23.0178 -2.5
    endloop
  endfacet
  facet normal 0 0 -1
    outer loop
      vertex -1.76777 33.0178 -2.5
      vertex -7.34731 35.1127 -2.5
      vertex -5.08421 36.4193 -2.5
    endloop
  endfacet
  facet normal -0 0 -1
    outer loop
      vertex -2.5 -21.25 -2.5
      vertex -12.4315 -26.3066 -2.5
      vertex -12.4315 -12.4315 -2.5
    endloop
  endfacet
  facet normal 0 0 -1
    outer loop
      vertex -2.5 31.25 -2.5
      vertex -9.28931 33.3641 -2.5
      vertex -7.34731 35.1127 -2.5
    endloop
  endfacet
  facet normal 0 0 -1
    outer loop
      vertex -2.5 31.25 -2.5
      vertex -10.8253 31.25 -2.5
      vertex -9.28931 33.3641 -2.5
    endloop
  endfacet
  facet normal 0 0 -1
    outer loop
      vertex -1.76777 29.4822 -2.5
      vertex -10.8253 31.25 -2.5
      vertex -2.5 31.25 -2.5
    endloop
  endfacet
  facet normal 0 0 -1
    outer loop
      vertex 29.4822 1.76777 -2.5
      vertex 23.0178 1.76777 -2.5
      vertex 26.3066 12.4315 -2.5
    endloop
  endfacet
  facet normal 0 0 -1
    outer loop
      vertex 21.25 2.5 -2.5
      vertex 26.3066 12.4315 -2.5
      vertex 23.0178 1.76777 -2.5
    endloop
  endfacet
  facet normal 0 0 -1
    outer loop
      vertex 12.4315 12.4315 -2.5
      vertex 21.25 2.5 -2.5
      vertex 19.4822 1.76777 -2.5
    endloop
  endfacet
  facet normal 0 0 -1
    outer loop
      vertex 12.4315 12.4315 -2.5
      vertex 18.75 0 -2.5
      vertex 12.4315 -12.4315 -2.5
    endloop
  endfacet
  facet normal 0 0 -1
    outer loop
      vertex 21.25 2.5 -2.5
      vertex 12.4315 12.4315 -2.5
      vertex 26.3066 12.4315 -2.5
    endloop
  endfacet
  facet normal 0 0 -1
    outer loop
      vertex 18.75 0 -2.5
      vertex 12.4315 12.4315 -2.5
      vertex 19.4822 1.76777 -2.5
    endloop
  endfacet
  facet normal 0 0 -1
    outer loop
      vertex 33.75 0 -2.5
      vertex 37.5 0 -2.5
      vertex 37.2268 -2.5989 -2.5
    endloop
  endfacet
  facet normal 0 0 -1
    outer loop
      vertex 33.0178 -1.76777 -2.5
      vertex 37.2268 -2.5989 -2.5
      vertex 36.4193 -5.08421 -2.5
    endloop
  endfacet
  facet normal 0 0 -1
    outer loop
      vertex 37.5 0 -2.5
      vertex 33.75 0 -2.5
      vertex 37.2268 2.5989 -2.5
    endloop
  endfacet
  facet normal 0 0 -1
    outer loop
      vertex 33.0178 -1.76777 -2.5
      vertex 36.4193 -5.08421 -2.5
      vertex 35.1127 -7.34731 -2.5
    endloop
  endfacet
  facet normal 0 0 -1
    outer loop
      vertex 33.0178 1.76777 -2.5
      vertex 37.2268 2.5989 -2.5
      vertex 33.75 0 -2.5
    endloop
  endfacet
  facet normal -0 0 -1
    outer loop
      vertex 37.2268 2.5989 -2.5
      vertex 33.0178 1.76777 -2.5
      vertex 36.4193 5.08421 -2.5
    endloop
  endfacet
  facet normal 0 0 -1
    outer loop
      vertex 31.25 -2.5 -2.5
      vertex 35.1127 -7.34731 -2.5
      vertex 33.3641 -9.28931 -2.5
    endloop
  endfacet
  facet normal 0 0 -1
    outer loop
      vertex 37.2268 -2.5989 -2.5
      vertex 33.0178 -1.76777 -2.5
      vertex 33.75 0 -2.5
    endloop
  endfacet
  facet normal 0 0 -1
    outer loop
      vertex 31.25 -2.5 -2.5
      vertex 33.3641 -9.28931 -2.5
      vertex 31.25 -10.8253 -2.5
    endloop
  endfacet
  facet normal 0 0 -1
    outer loop
      vertex 35.1127 -7.34731 -2.5
      vertex 31.25 -2.5 -2.5
      vertex 33.0178 -1.76777 -2.5
    endloop
  endfacet
  facet normal 0 0 -1
    outer loop
      vertex 31.25 -10.8253 -2.5
      vertex 29.4822 -1.76777 -2.5
      vertex 31.25 -2.5 -2.5
    endloop
  endfacet
  facet normal 0 0 -1
    outer loop
      vertex 28.8627 -11.8882 -2.5
      vertex 29.4822 -1.76777 -2.5
      vertex 31.25 -10.8253 -2.5
    endloop
  endfacet
  facet normal 0 0 -1
    outer loop
      vertex 26.3066 -12.4315 -2.5
      vertex 29.4822 -1.76777 -2.5
      vertex 28.8627 -11.8882 -2.5
    endloop
  endfacet
  facet normal -0 0 -1
    outer loop
      vertex 29.4822 -1.76777 -2.5
      vertex 26.3066 -12.4315 -2.5
      vertex 23.0178 -1.76777 -2.5
    endloop
  endfacet
  facet normal -0 0 -1
    outer loop
      vertex 36.4193 5.08421 -2.5
      vertex 33.0178 1.76777 -2.5
      vertex 35.1127 7.34731 -2.5
    endloop
  endfacet
  facet normal 0 0 -1
    outer loop
      vertex 31.25 2.5 -2.5
      vertex 35.1127 7.34731 -2.5
      vertex 33.0178 1.76777 -2.5
    endloop
  endfacet
  facet normal -0 0 -1
    outer loop
      vertex 35.1127 7.34731 -2.5
      vertex 31.25 2.5 -2.5
      vertex 33.3641 9.28931 -2.5
    endloop
  endfacet
  facet normal 0 0 -1
    outer loop
      vertex 31.25 2.5 -2.5
      vertex 31.25 10.8253 -2.5
      vertex 33.3641 9.28931 -2.5
    endloop
  endfacet
  facet normal 0 0 -1
    outer loop
      vertex 29.4822 1.76777 -2.5
      vertex 31.25 10.8253 -2.5
      vertex 31.25 2.5 -2.5
    endloop
  endfacet
  facet normal 0 0 -1
    outer loop
      vertex 29.4822 1.76777 -2.5
      vertex 28.8627 11.8882 -2.5
      vertex 31.25 10.8253 -2.5
    endloop
  endfacet
  facet normal 0 0 -1
    outer loop
      vertex 23.75 0 -2.5
      vertex 29.4822 1.76777 -2.5
      vertex 28.75 0 -2.5
    endloop
  endfacet
  facet normal 0 0 -1
    outer loop
      vertex 29.4822 -1.76777 -2.5
      vertex 23.0178 -1.76777 -2.5
      vertex 28.75 0 -2.5
    endloop
  endfacet
  facet normal 0 0 -1
    outer loop
      vertex 23.0178 1.76777 -2.5
      vertex 29.4822 1.76777 -2.5
      vertex 23.75 0 -2.5
    endloop
  endfacet
  facet normal 0 0 -1
    outer loop
      vertex 29.4822 1.76777 -2.5
      vertex 26.3066 12.4315 -2.5
      vertex 28.8627 11.8882 -2.5
    endloop
  endfacet
  facet normal -0 0 -1
    outer loop
      vertex 28.75 0 -2.5
      vertex 23.0178 -1.76777 -2.5
      vertex 23.75 0 -2.5
    endloop
  endfacet
  facet normal 0 0 -1
    outer loop
      vertex 26.3066 -12.4315 -2.5
      vertex 21.25 -2.5 -2.5
      vertex 23.0178 -1.76777 -2.5
    endloop
  endfacet
  facet normal 0 0 -1
    outer loop
      vertex 12.4315 -12.4315 -2.5
      vertex 21.25 -2.5 -2.5
      vertex 26.3066 -12.4315 -2.5
    endloop
  endfacet
  facet normal -0 0 -1
    outer loop
      vertex 19.4822 -1.76777 -2.5
      vertex 12.4315 -12.4315 -2.5
      vertex 18.75 0 -2.5
    endloop
  endfacet
  facet normal -0 0 -1
    outer loop
      vertex 21.25 -2.5 -2.5
      vertex 12.4315 -12.4315 -2.5
      vertex 19.4822 -1.76777 -2.5
    endloop
  endfacet
  facet normal -0.866025 0.5 0
    outer loop
      vertex -36.4193 5.08421 -2.5
      vertex -35.1127 7.34731 2.5
      vertex -35.1127 7.34731 -2.5
    endloop
  endfacet
  facet normal -0.866025 0.5 0
    outer loop
      vertex -35.1127 7.34731 2.5
      vertex -36.4193 5.08421 -2.5
      vertex -36.4193 5.08421 2.5
    endloop
  endfacet
  facet normal -0.994522 0.104529 0
    outer loop
      vertex -37.5 0 -2.5
      vertex -37.2268 2.5989 2.5
      vertex -37.2268 2.5989 -2.5
    endloop
  endfacet
  facet normal -0.994522 0.104529 0
    outer loop
      vertex -37.2268 2.5989 2.5
      vertex -37.5 0 -2.5
      vertex -37.5 0 2.5
    endloop
  endfacet
  facet normal 0 0 1
    outer loop
      vertex -23.0178 -1.76777 2.5
      vertex -28.8627 -11.8882 2.5
      vertex -26.3066 -12.4315 2.5
    endloop
  endfacet
  facet normal 0 0 1
    outer loop
      vertex -23.0178 -1.76777 2.5
      vertex -29.4822 -1.76777 2.5
      vertex -28.8627 -11.8882 2.5
    endloop
  endfacet
  facet normal 0 0 1
    outer loop
      vertex -31.25 -10.8253 2.5
      vertex -29.4822 -1.76777 2.5
      vertex -31.25 -2.5 2.5
    endloop
  endfacet
  facet normal 0 0 1
    outer loop
      vertex -29.4822 -1.76777 2.5
      vertex -31.25 -10.8253 2.5
      vertex -28.8627 -11.8882 2.5
    endloop
  endfacet
  facet normal 0 0 1
    outer loop
      vertex -35.1127 -7.34731 2.5
      vertex -31.25 -2.5 2.5
      vertex -33.0178 -1.76777 2.5
    endloop
  endfacet
  facet normal 0 0 1
    outer loop
      vertex -31.25 -2.5 2.5
      vertex -33.3641 -9.28931 2.5
      vertex -31.25 -10.8253 2.5
    endloop
  endfacet
  facet normal 0 0 1
    outer loop
      vertex -37.2268 -2.5989 2.5
      vertex -33.0178 -1.76777 2.5
      vertex -33.75 0 2.5
    endloop
  endfacet
  facet normal -0 0 1
    outer loop
      vertex -37.2268 2.5989 2.5
      vertex -33.0178 1.76777 2.5
      vertex -36.4193 5.08421 2.5
    endloop
  endfacet
  facet normal 0 0 1
    outer loop
      vertex -31.25 -2.5 2.5
      vertex -35.1127 -7.34731 2.5
      vertex -33.3641 -9.28931 2.5
    endloop
  endfacet
  facet normal 0 0 1
    outer loop
      vertex -33.0178 1.76777 2.5
      vertex -37.2268 2.5989 2.5
      vertex -33.75 0 2.5
    endloop
  endfacet
  facet normal 0 0 1
    outer loop
      vertex -33.0178 -1.76777 2.5
      vertex -36.4193 -5.08421 2.5
      vertex -35.1127 -7.34731 2.5
    endloop
  endfacet
  facet normal 0 0 1
    outer loop
      vertex -37.5 0 2.5
      vertex -33.75 0 2.5
      vertex -37.2268 2.5989 2.5
    endloop
  endfacet
  facet normal 0 0 1
    outer loop
      vertex -33.0178 -1.76777 2.5
      vertex -37.2268 -2.5989 2.5
      vertex -36.4193 -5.08421 2.5
    endloop
  endfacet
  facet normal 0 0 1
    outer loop
      vertex -33.75 0 2.5
      vertex -37.5 0 2.5
      vertex -37.2268 -2.5989 2.5
    endloop
  endfacet
  facet normal 0 0 1
    outer loop
      vertex -12.4315 12.4315 2.5
      vertex -18.75 0 2.5
      vertex -12.4315 -12.4315 2.5
    endloop
  endfacet
  facet normal 0 0 1
    outer loop
      vertex -12.4315 12.4315 2.5
      vertex -19.4822 1.76777 2.5
      vertex -18.75 0 2.5
    endloop
  endfacet
  facet normal 0 0 1
    outer loop
      vertex -12.4315 12.4315 2.5
      vertex -21.25 2.5 2.5
      vertex -19.4822 1.76777 2.5
    endloop
  endfacet
  facet normal -0 0 1
    outer loop
      vertex -26.3066 12.4315 2.5
      vertex -21.25 2.5 2.5
      vertex -12.4315 12.4315 2.5
    endloop
  endfacet
  facet normal 0 0 1
    outer loop
      vertex -29.4822 1.76777 2.5
      vertex -23.0178 1.76777 2.5
      vertex -26.3066 12.4315 2.5
    endloop
  endfacet
  facet normal 0 0 1
    outer loop
      vertex -21.25 2.5 2.5
      vertex -26.3066 12.4315 2.5
      vertex -23.0178 1.76777 2.5
    endloop
  endfacet
  facet normal -0 0 1
    outer loop
      vertex -19.4822 -1.76777 2.5
      vertex -12.4315 -12.4315 2.5
      vertex -18.75 0 2.5
    endloop
  endfacet
  facet normal -0 0 1
    outer loop
      vertex -21.25 -2.5 2.5
      vertex -12.4315 -12.4315 2.5
      vertex -19.4822 -1.76777 2.5
    endloop
  endfacet
  facet normal 0 0 1
    outer loop
      vertex -26.3066 -12.4315 2.5
      vertex -21.25 -2.5 2.5
      vertex -23.0178 -1.76777 2.5
    endloop
  endfacet
  facet normal 0 0 1
    outer loop
      vertex -21.25 -2.5 2.5
      vertex -26.3066 -12.4315 2.5
      vertex -12.4315 -12.4315 2.5
    endloop
  endfacet
  facet normal -0 0 1
    outer loop
      vertex -28.75 0 2.5
      vertex -23.0178 -1.76777 2.5
      vertex -23.75 0 2.5
    endloop
  endfacet
  facet normal 0 0 1
    outer loop
      vertex -23.0178 1.76777 2.5
      vertex -29.4822 1.76777 2.5
      vertex -23.75 0 2.5
    endloop
  endfacet
  facet normal 0 0 1
    outer loop
      vertex -29.4822 -1.76777 2.5
      vertex -23.0178 -1.76777 2.5
      vertex -28.75 0 2.5
    endloop
  endfacet
  facet normal 0 0 1
    outer loop
      vertex -29.4822 1.76777 2.5
      vertex -26.3066 12.4315 2.5
      vertex -28.8627 11.8882 2.5
    endloop
  endfacet
  facet normal 0 0 1
    outer loop
      vertex -23.75 0 2.5
      vertex -29.4822 1.76777 2.5
      vertex -28.75 0 2.5
    endloop
  endfacet
  facet normal -0 0 1
    outer loop
      vertex -31.25 10.8253 2.5
      vertex -29.4822 1.76777 2.5
      vertex -28.8627 11.8882 2.5
    endloop
  endfacet
  facet normal 0 0 1
    outer loop
      vertex -31.25 10.8253 2.5
      vertex -31.25 2.5 2.5
      vertex -29.4822 1.76777 2.5
    endloop
  endfacet
  facet normal -0 0 1
    outer loop
      vertex -33.3641 9.28931 2.5
      vertex -31.25 2.5 2.5
      vertex -31.25 10.8253 2.5
    endloop
  endfacet
  facet normal -0 0 1
    outer loop
      vertex -35.1127 7.34731 2.5
      vertex -31.25 2.5 2.5
      vertex -33.3641 9.28931 2.5
    endloop
  endfacet
  facet normal 0 0 1
    outer loop
      vertex -31.25 2.5 2.5
      vertex -35.1127 7.34731 2.5
      vertex -33.0178 1.76777 2.5
    endloop
  endfacet
  facet normal -0 0 1
    outer loop
      vertex -36.4193 5.08421 2.5
      vertex -33.0178 1.76777 2.5
      vertex -35.1127 7.34731 2.5
    endloop
  endfacet
  facet normal 0 0 1
    outer loop
      vertex 12.4315 -26.3066 2.5
      vertex 1.76777 -29.4822 2.5
      vertex 11.8882 -28.8627 2.5
    endloop
  endfacet
  facet normal 0 0 1
    outer loop
      vertex 11.8882 -28.8627 2.5
      vertex 1.76777 -29.4822 2.5
      vertex 2.5 -31.25 2.5
    endloop
  endfacet
  facet normal -0 0 1
    outer loop
      vertex -5.27356e-15 -23.75 2.5
      vertex 1.76777 -29.4822 2.5
      vertex 1.76777 -23.0178 2.5
    endloop
  endfacet
  facet normal 0 0 1
    outer loop
      vertex -5.27356e-15 -23.75 2.5
      vertex -6.38378e-15 -28.75 2.5
      vertex 1.76777 -29.4822 2.5
    endloop
  endfacet
  facet normal 0 0 1
    outer loop
      vertex -1.76777 -23.0178 2.5
      vertex -6.38378e-15 -28.75 2.5
      vertex -5.27356e-15 -23.75 2.5
    endloop
  endfacet
  facet normal 0 0 1
    outer loop
      vertex -1.76777 -23.0178 2.5
      vertex -1.76777 -29.4822 2.5
      vertex -6.38378e-15 -28.75 2.5
    endloop
  endfacet
  facet normal 0 0 1
    outer loop
      vertex -12.4315 -26.3066 2.5
      vertex -1.76777 -23.0178 2.5
      vertex -2.5 -21.25 2.5
    endloop
  endfacet
  facet normal 0 0 1
    outer loop
      vertex -1.76777 -23.0178 2.5
      vertex -12.4315 -26.3066 2.5
      vertex -1.76777 -29.4822 2.5
    endloop
  endfacet
  facet normal 0 0 1
    outer loop
      vertex -12.4315 12.4315 2.5
      vertex 12.4315 12.4315 2.5
      vertex 4.16334e-15 18.75 2.5
    endloop
  endfacet
  facet normal 0 0 1
    outer loop
      vertex 12.4315 -12.4315 2.5
      vertex 1.76777 -19.4822 2.5
      vertex 2.5 -21.25 2.5
    endloop
  endfacet
  facet normal 0 0 1
    outer loop
      vertex 12.4315 12.4315 2.5
      vertex -12.4315 12.4315 2.5
      vertex 12.4315 -12.4315 2.5
    endloop
  endfacet
  facet normal 0 0 1
    outer loop
      vertex 12.4315 -12.4315 2.5
      vertex -4.16334e-15 -18.75 2.5
      vertex 1.76777 -19.4822 2.5
    endloop
  endfacet
  facet normal 0 0 1
    outer loop
      vertex -12.4315 12.4315 2.5
      vertex 4.16334e-15 18.75 2.5
      vertex -1.76777 19.4822 2.5
    endloop
  endfacet
  facet normal 0 0 1
    outer loop
      vertex -12.4315 -12.4315 2.5
      vertex 12.4315 -12.4315 2.5
      vertex -12.4315 12.4315 2.5
    endloop
  endfacet
  facet normal 0 0 1
    outer loop
      vertex -12.4315 12.4315 2.5
      vertex -1.76777 19.4822 2.5
      vertex -2.5 21.25 2.5
    endloop
  endfacet
  facet normal 0 0 1
    outer loop
      vertex 12.4315 -12.4315 2.5
      vertex -12.4315 -12.4315 2.5
      vertex -4.16334e-15 -18.75 2.5
    endloop
  endfacet
  facet normal 0 0 1
    outer loop
      vertex 1.76777 23.0178 2.5
      vertex 12.4315 26.3066 2.5
      vertex 1.76777 29.4822 2.5
    endloop
  endfacet
  facet normal 0 0 1
    outer loop
      vertex 12.4315 26.3066 2.5
      vertex 1.76777 23.0178 2.5
      vertex 2.5 21.25 2.5
    endloop
  endfacet
  facet normal -0 0 1
    outer loop
      vertex 6.38378e-15 28.75 2.5
      vertex 1.76777 23.0178 2.5
      vertex 1.76777 29.4822 2.5
    endloop
  endfacet
  facet normal 0 0 1
    outer loop
      vertex 6.38378e-15 28.75 2.5
      vertex 5.27356e-15 23.75 2.5
      vertex 1.76777 23.0178 2.5
    endloop
  endfacet
  facet normal 0 0 1
    outer loop
      vertex -1.76777 29.4822 2.5
      vertex 5.27356e-15 23.75 2.5
      vertex 6.38378e-15 28.75 2.5
    endloop
  endfacet
  facet normal 0 0 1
    outer loop
      vertex -1.76777 29.4822 2.5
      vertex -1.76777 23.0178 2.5
      vertex 5.27356e-15 23.75 2.5
    endloop
  endfacet
  facet normal -0 0 1
    outer loop
      vertex -10.8253 31.25 2.5
      vertex -1.76777 29.4822 2.5
      vertex -2.5 31.25 2.5
    endloop
  endfacet
  facet normal 0 0 1
    outer loop
      vertex -12.4315 26.3066 2.5
      vertex -1.76777 29.4822 2.5
      vertex -11.8882 28.8627 2.5
    endloop
  endfacet
  facet normal -0 0 1
    outer loop
      vertex 2.5 21.25 2.5
      vertex 12.4315 12.4315 2.5
      vertex 12.4315 26.3066 2.5
    endloop
  endfacet
  facet normal -0 0 1
    outer loop
      vertex 1.76777 19.4822 2.5
      vertex 12.4315 12.4315 2.5
      vertex 2.5 21.25 2.5
    endloop
  endfacet
  facet normal 0 0 1
    outer loop
      vertex 10.8253 31.25 2.5
      vertex 1.76777 29.4822 2.5
      vertex 11.8882 28.8627 2.5
    endloop
  endfacet
  facet normal -0 0 1
    outer loop
      vertex 4.16334e-15 18.75 2.5
      vertex 12.4315 12.4315 2.5
      vertex 1.76777 19.4822 2.5
    endloop
  endfacet
  facet normal 0 0 1
    outer loop
      vertex 1.76777 29.4822 2.5
      vertex 10.8253 31.25 2.5
      vertex 2.5 31.25 2.5
    endloop
  endfacet
  facet normal 0 0 1
    outer loop
      vertex 12.4315 -12.4315 2.5
      vertex 2.5 -21.25 2.5
      vertex 12.4315 -26.3066 2.5
    endloop
  endfacet
  facet normal 0 0 1
    outer loop
      vertex 2.5 31.25 2.5
      vertex 10.8253 31.25 2.5
      vertex 9.28931 33.3641 2.5
    endloop
  endfacet
  facet normal -0 0 1
    outer loop
      vertex 1.76777 -23.0178 2.5
      vertex 12.4315 -26.3066 2.5
      vertex 2.5 -21.25 2.5
    endloop
  endfacet
  facet normal 0 0 1
    outer loop
      vertex 2.5 31.25 2.5
      vertex 9.28931 33.3641 2.5
      vertex 7.34731 35.1127 2.5
    endloop
  endfacet
  facet normal 0 0 1
    outer loop
      vertex 1.76777 -29.4822 2.5
      vertex 12.4315 -26.3066 2.5
      vertex 1.76777 -23.0178 2.5
    endloop
  endfacet
  facet normal 0 0 1
    outer loop
      vertex 1.76777 33.0178 2.5
      vertex 7.34731 35.1127 2.5
      vertex 5.08421 36.4193 2.5
    endloop
  endfacet
  facet normal 0 0 1
    outer loop
      vertex 11.8882 -28.8627 2.5
      vertex 2.5 -31.25 2.5
      vertex 10.8253 -31.25 2.5
    endloop
  endfacet
  facet normal 0 0 1
    outer loop
      vertex 1.76777 33.0178 2.5
      vertex 5.08421 36.4193 2.5
      vertex 2.5989 37.2268 2.5
    endloop
  endfacet
  facet normal 0 0 1
    outer loop
      vertex 10.8253 -31.25 2.5
      vertex 2.5 -31.25 2.5
      vertex 9.28931 -33.3641 2.5
    endloop
  endfacet
  facet normal 0 0 1
    outer loop
      vertex 11.8882 28.8627 2.5
      vertex 1.76777 29.4822 2.5
      vertex 12.4315 26.3066 2.5
    endloop
  endfacet
  facet normal 0 0 1
    outer loop
      vertex 7.34731 35.1127 2.5
      vertex 1.76777 33.0178 2.5
      vertex 2.5 31.25 2.5
    endloop
  endfacet
  facet normal 0 0 1
    outer loop
      vertex 7.49401e-15 33.75 2.5
      vertex 2.5989 37.2268 2.5
      vertex 8.32667e-15 37.5 2.5
    endloop
  endfacet
  facet normal 0 0 1
    outer loop
      vertex 2.5989 37.2268 2.5
      vertex 7.49401e-15 33.75 2.5
      vertex 1.76777 33.0178 2.5
    endloop
  endfacet
  facet normal -0 0 1
    outer loop
      vertex -2.5989 37.2268 2.5
      vertex 7.49401e-15 33.75 2.5
      vertex 8.32667e-15 37.5 2.5
    endloop
  endfacet
  facet normal 0 0 1
    outer loop
      vertex 7.49401e-15 33.75 2.5
      vertex -2.5989 37.2268 2.5
      vertex -1.76777 33.0178 2.5
    endloop
  endfacet
  facet normal 0 0 1
    outer loop
      vertex -1.76777 23.0178 2.5
      vertex -12.4315 26.3066 2.5
      vertex -2.5 21.25 2.5
    endloop
  endfacet
  facet normal 0 0 1
    outer loop
      vertex -4.16334e-15 -18.75 2.5
      vertex -12.4315 -12.4315 2.5
      vertex -1.76777 -19.4822 2.5
    endloop
  endfacet
  facet normal -0 0 1
    outer loop
      vertex -7.34731 35.1127 2.5
      vertex -1.76777 33.0178 2.5
      vertex -5.08421 36.4193 2.5
    endloop
  endfacet
  facet normal -0 0 1
    outer loop
      vertex -5.08421 36.4193 2.5
      vertex -1.76777 33.0178 2.5
      vertex -2.5989 37.2268 2.5
    endloop
  endfacet
  facet normal 0 0 1
    outer loop
      vertex 9.28931 -33.3641 2.5
      vertex 2.5 -31.25 2.5
      vertex 7.34731 -35.1127 2.5
    endloop
  endfacet
  facet normal -0 0 1
    outer loop
      vertex 1.76777 -33.0178 2.5
      vertex 7.34731 -35.1127 2.5
      vertex 2.5 -31.25 2.5
    endloop
  endfacet
  facet normal 0 0 1
    outer loop
      vertex 7.34731 -35.1127 2.5
      vertex 1.76777 -33.0178 2.5
      vertex 5.08421 -36.4193 2.5
    endloop
  endfacet
  facet normal 0 0 1
    outer loop
      vertex 5.08421 -36.4193 2.5
      vertex 1.76777 -33.0178 2.5
      vertex 2.5989 -37.2268 2.5
    endloop
  endfacet
  facet normal -0 0 1
    outer loop
      vertex -7.49401e-15 -33.75 2.5
      vertex 2.5989 -37.2268 2.5
      vertex 1.76777 -33.0178 2.5
    endloop
  endfacet
  facet normal 0 0 1
    outer loop
      vertex -7.49401e-15 -33.75 2.5
      vertex -8.32667e-15 -37.5 2.5
      vertex 2.5989 -37.2268 2.5
    endloop
  endfacet
  facet normal 0 0 1
    outer loop
      vertex -2.5989 -37.2268 2.5
      vertex -7.49401e-15 -33.75 2.5
      vertex -1.76777 -33.0178 2.5
    endloop
  endfacet
  facet normal 0 0 1
    outer loop
      vertex -7.34731 -35.1127 2.5
      vertex -1.76777 -33.0178 2.5
      vertex -2.5 -31.25 2.5
    endloop
  endfacet
  facet normal 0 0 1
    outer loop
      vertex -7.49401e-15 -33.75 2.5
      vertex -2.5989 -37.2268 2.5
      vertex -8.32667e-15 -37.5 2.5
    endloop
  endfacet
  facet normal 0 0 1
    outer loop
      vertex -1.76777 -19.4822 2.5
      vertex -12.4315 -12.4315 2.5
      vertex -2.5 -21.25 2.5
    endloop
  endfacet
  facet normal 0 0 1
    outer loop
      vertex -1.76777 33.0178 2.5
      vertex -7.34731 35.1127 2.5
      vertex -2.5 31.25 2.5
    endloop
  endfacet
  facet normal 0 0 1
    outer loop
      vertex -12.4315 -26.3066 2.5
      vertex -2.5 -21.25 2.5
      vertex -12.4315 -12.4315 2.5
    endloop
  endfacet
  facet normal -0 0 1
    outer loop
      vertex -9.28931 33.3641 2.5
      vertex -2.5 31.25 2.5
      vertex -7.34731 35.1127 2.5
    endloop
  endfacet
  facet normal -0 -0 1
    outer loop
      vertex -11.8882 -28.8627 2.5
      vertex -1.76777 -29.4822 2.5
      vertex -12.4315 -26.3066 2.5
    endloop
  endfacet
  facet normal 0 0 1
    outer loop
      vertex -10.8253 31.25 2.5
      vertex -2.5 31.25 2.5
      vertex -9.28931 33.3641 2.5
    endloop
  endfacet
  facet normal 0 -0 1
    outer loop
      vertex -10.8253 -31.25 2.5
      vertex -1.76777 -29.4822 2.5
      vertex -11.8882 -28.8627 2.5
    endloop
  endfacet
  facet normal 0 0 1
    outer loop
      vertex -1.76777 29.4822 2.5
      vertex -10.8253 31.25 2.5
      vertex -11.8882 28.8627 2.5
    endloop
  endfacet
  facet normal 0 0 1
    outer loop
      vertex -1.76777 -33.0178 2.5
      vertex -5.08421 -36.4193 2.5
      vertex -2.5989 -37.2268 2.5
    endloop
  endfacet
  facet normal 0 0 1
    outer loop
      vertex -1.76777 29.4822 2.5
      vertex -12.4315 26.3066 2.5
      vertex -1.76777 23.0178 2.5
    endloop
  endfacet
  facet normal 0 0 1
    outer loop
      vertex -1.76777 -33.0178 2.5
      vertex -7.34731 -35.1127 2.5
      vertex -5.08421 -36.4193 2.5
    endloop
  endfacet
  facet normal 0 0 1
    outer loop
      vertex -2.5 21.25 2.5
      vertex -12.4315 26.3066 2.5
      vertex -12.4315 12.4315 2.5
    endloop
  endfacet
  facet normal 0 0 1
    outer loop
      vertex -2.5 -31.25 2.5
      vertex -9.28931 -33.3641 2.5
      vertex -7.34731 -35.1127 2.5
    endloop
  endfacet
  facet normal 0 0 1
    outer loop
      vertex -2.5 -31.25 2.5
      vertex -10.8253 -31.25 2.5
      vertex -9.28931 -33.3641 2.5
    endloop
  endfacet
  facet normal 0 0 1
    outer loop
      vertex -1.76777 -29.4822 2.5
      vertex -10.8253 -31.25 2.5
      vertex -2.5 -31.25 2.5
    endloop
  endfacet
  facet normal 0 0 1
    outer loop
      vertex 29.4822 -1.76777 2.5
      vertex 23.0178 -1.76777 2.5
      vertex 26.3066 -12.4315 2.5
    endloop
  endfacet
  facet normal -0 0 1
    outer loop
      vertex 21.25 -2.5 2.5
      vertex 26.3066 -12.4315 2.5
      vertex 23.0178 -1.76777 2.5
    endloop
  endfacet
  facet normal 0 0 1
    outer loop
      vertex 12.4315 -12.4315 2.5
      vertex 21.25 -2.5 2.5
      vertex 19.4822 -1.76777 2.5
    endloop
  endfacet
  facet normal 0 0 1
    outer loop
      vertex 12.4315 -12.4315 2.5
      vertex 18.75 0 2.5
      vertex 12.4315 12.4315 2.5
    endloop
  endfacet
  facet normal 0 0 1
    outer loop
      vertex 21.25 -2.5 2.5
      vertex 12.4315 -12.4315 2.5
      vertex 26.3066 -12.4315 2.5
    endloop
  endfacet
  facet normal 0 0 1
    outer loop
      vertex 18.75 0 2.5
      vertex 12.4315 -12.4315 2.5
      vertex 19.4822 -1.76777 2.5
    endloop
  endfacet
  facet normal 0 0 1
    outer loop
      vertex 33.75 0 2.5
      vertex 37.5 0 2.5
      vertex 37.2268 2.5989 2.5
    endloop
  endfacet
  facet normal 0 0 1
    outer loop
      vertex 33.0178 1.76777 2.5
      vertex 37.2268 2.5989 2.5
      vertex 36.4193 5.08421 2.5
    endloop
  endfacet
  facet normal 0 0 1
    outer loop
      vertex 37.5 0 2.5
      vertex 33.75 0 2.5
      vertex 37.2268 -2.5989 2.5
    endloop
  endfacet
  facet normal 0 0 1
    outer loop
      vertex 33.0178 1.76777 2.5
      vertex 36.4193 5.08421 2.5
      vertex 35.1127 7.34731 2.5
    endloop
  endfacet
  facet normal -0 0 1
    outer loop
      vertex 33.0178 -1.76777 2.5
      vertex 37.2268 -2.5989 2.5
      vertex 33.75 0 2.5
    endloop
  endfacet
  facet normal 0 0 1
    outer loop
      vertex 37.2268 -2.5989 2.5
      vertex 33.0178 -1.76777 2.5
      vertex 36.4193 -5.08421 2.5
    endloop
  endfacet
  facet normal 0 0 1
    outer loop
      vertex 31.25 2.5 2.5
      vertex 35.1127 7.34731 2.5
      vertex 33.3641 9.28931 2.5
    endloop
  endfacet
  facet normal 0 0 1
    outer loop
      vertex 37.2268 2.5989 2.5
      vertex 33.0178 1.76777 2.5
      vertex 33.75 0 2.5
    endloop
  endfacet
  facet normal 0 0 1
    outer loop
      vertex 31.25 2.5 2.5
      vertex 33.3641 9.28931 2.5
      vertex 31.25 10.8253 2.5
    endloop
  endfacet
  facet normal 0 0 1
    outer loop
      vertex 35.1127 7.34731 2.5
      vertex 31.25 2.5 2.5
      vertex 33.0178 1.76777 2.5
    endloop
  endfacet
  facet normal 0 0 1
    outer loop
      vertex 31.25 10.8253 2.5
      vertex 29.4822 1.76777 2.5
      vertex 31.25 2.5 2.5
    endloop
  endfacet
  facet normal 0 0 1
    outer loop
      vertex 28.8627 11.8882 2.5
      vertex 29.4822 1.76777 2.5
      vertex 31.25 10.8253 2.5
    endloop
  endfacet
  facet normal 0 0 1
    outer loop
      vertex 26.3066 12.4315 2.5
      vertex 29.4822 1.76777 2.5
      vertex 28.8627 11.8882 2.5
    endloop
  endfacet
  facet normal 0 0 1
    outer loop
      vertex 29.4822 1.76777 2.5
      vertex 26.3066 12.4315 2.5
      vertex 23.0178 1.76777 2.5
    endloop
  endfacet
  facet normal 0 0 1
    outer loop
      vertex 36.4193 -5.08421 2.5
      vertex 33.0178 -1.76777 2.5
      vertex 35.1127 -7.34731 2.5
    endloop
  endfacet
  facet normal -0 0 1
    outer loop
      vertex 31.25 -2.5 2.5
      vertex 35.1127 -7.34731 2.5
      vertex 33.0178 -1.76777 2.5
    endloop
  endfacet
  facet normal 0 0 1
    outer loop
      vertex 35.1127 -7.34731 2.5
      vertex 31.25 -2.5 2.5
      vertex 33.3641 -9.28931 2.5
    endloop
  endfacet
  facet normal 0 0 1
    outer loop
      vertex 31.25 -2.5 2.5
      vertex 31.25 -10.8253 2.5
      vertex 33.3641 -9.28931 2.5
    endloop
  endfacet
  facet normal 0 0 1
    outer loop
      vertex 29.4822 -1.76777 2.5
      vertex 31.25 -10.8253 2.5
      vertex 31.25 -2.5 2.5
    endloop
  endfacet
  facet normal 0 0 1
    outer loop
      vertex 29.4822 -1.76777 2.5
      vertex 28.8627 -11.8882 2.5
      vertex 31.25 -10.8253 2.5
    endloop
  endfacet
  facet normal -0 0 1
    outer loop
      vertex 23.75 0 2.5
      vertex 29.4822 -1.76777 2.5
      vertex 28.75 0 2.5
    endloop
  endfacet
  facet normal 0 0 1
    outer loop
      vertex 29.4822 1.76777 2.5
      vertex 23.0178 1.76777 2.5
      vertex 28.75 0 2.5
    endloop
  endfacet
  facet normal 0 0 1
    outer loop
      vertex 23.0178 -1.76777 2.5
      vertex 29.4822 -1.76777 2.5
      vertex 23.75 0 2.5
    endloop
  endfacet
  facet normal 0 0 1
    outer loop
      vertex 29.4822 -1.76777 2.5
      vertex 26.3066 -12.4315 2.5
      vertex 28.8627 -11.8882 2.5
    endloop
  endfacet
  facet normal 0 0 1
    outer loop
      vertex 28.75 0 2.5
      vertex 23.0178 1.76777 2.5
      vertex 23.75 0 2.5
    endloop
  endfacet
  facet normal 0 0 1
    outer loop
      vertex 26.3066 12.4315 2.5
      vertex 21.25 2.5 2.5
      vertex 23.0178 1.76777 2.5
    endloop
  endfacet
  facet normal -0 0 1
    outer loop
      vertex 12.4315 12.4315 2.5
      vertex 21.25 2.5 2.5
      vertex 26.3066 12.4315 2.5
    endloop
  endfacet
  facet normal 0 0 1
    outer loop
      vertex 19.4822 1.76777 2.5
      vertex 12.4315 12.4315 2.5
      vertex 18.75 0 2.5
    endloop
  endfacet
  facet normal 0 0 1
    outer loop
      vertex 21.25 2.5 2.5
      vertex 12.4315 12.4315 2.5
      vertex 19.4822 1.76777 2.5
    endloop
  endfacet
  facet normal -0.587786 0.809017 0
    outer loop
      vertex -31.25 10.8253 -2.5
      vertex -33.3641 9.28931 2.5
      vertex -31.25 10.8253 2.5
    endloop
  endfacet
  facet normal -0.587786 0.809017 0
    outer loop
      vertex -33.3641 9.28931 2.5
      vertex -31.25 10.8253 -2.5
      vertex -33.3641 9.28931 -2.5
    endloop
  endfacet
  facet normal -0.207912 0.978148 0
    outer loop
      vertex -26.3066 12.4315 -2.5
      vertex -28.8627 11.8882 2.5
      vertex -26.3066 12.4315 2.5
    endloop
  endfacet
  facet normal -0.207912 0.978148 0
    outer loop
      vertex -28.8627 11.8882 2.5
      vertex -26.3066 12.4315 -2.5
      vertex -28.8627 11.8882 -2.5
    endloop
  endfacet
  facet normal 0.994522 -0.104529 0
    outer loop
      vertex 37.2268 -2.5989 2.5
      vertex 37.5 0 -2.5
      vertex 37.5 0 2.5
    endloop
  endfacet
  facet normal 0.994522 -0.104529 0
    outer loop
      vertex 37.5 0 -2.5
      vertex 37.2268 -2.5989 2.5
      vertex 37.2268 -2.5989 -2.5
    endloop
  endfacet
  facet normal 0.207912 -0.978148 0
    outer loop
      vertex 26.3066 -12.4315 -2.5
      vertex 28.8627 -11.8882 2.5
      vertex 26.3066 -12.4315 2.5
    endloop
  endfacet
  facet normal 0.207912 -0.978148 0
    outer loop
      vertex 28.8627 -11.8882 2.5
      vertex 26.3066 -12.4315 -2.5
      vertex 28.8627 -11.8882 -2.5
    endloop
  endfacet
  facet normal 0.587786 -0.809017 0
    outer loop
      vertex 31.25 -10.8253 -2.5
      vertex 33.3641 -9.28931 2.5
      vertex 31.25 -10.8253 2.5
    endloop
  endfacet
  facet normal 0.587786 -0.809017 0
    outer loop
      vertex 33.3641 -9.28931 2.5
      vertex 31.25 -10.8253 -2.5
      vertex 33.3641 -9.28931 -2.5
    endloop
  endfacet
  facet normal -0.587786 -0.809017 0
    outer loop
      vertex -33.3641 -9.28931 -2.5
      vertex -31.25 -10.8253 2.5
      vertex -33.3641 -9.28931 2.5
    endloop
  endfacet
  facet normal -0.587786 -0.809017 -0
    outer loop
      vertex -31.25 -10.8253 2.5
      vertex -33.3641 -9.28931 -2.5
      vertex -31.25 -10.8253 -2.5
    endloop
  endfacet
  facet normal -0.951057 -0.309017 0
    outer loop
      vertex -36.4193 -5.08421 -2.5
      vertex -37.2268 -2.5989 2.5
      vertex -37.2268 -2.5989 -2.5
    endloop
  endfacet
  facet normal -0.951057 -0.309017 0
    outer loop
      vertex -37.2268 -2.5989 2.5
      vertex -36.4193 -5.08421 -2.5
      vertex -36.4193 -5.08421 2.5
    endloop
  endfacet
  facet normal 0.866025 0.5 0
    outer loop
      vertex 36.4193 5.08421 2.5
      vertex 35.1127 7.34731 -2.5
      vertex 35.1127 7.34731 2.5
    endloop
  endfacet
  facet normal 0.866025 0.5 0
    outer loop
      vertex 35.1127 7.34731 -2.5
      vertex 36.4193 5.08421 2.5
      vertex 36.4193 5.08421 -2.5
    endloop
  endfacet
  facet normal 0.406736 0.913546 -0
    outer loop
      vertex 31.25 10.8253 -2.5
      vertex 28.8627 11.8882 2.5
      vertex 31.25 10.8253 2.5
    endloop
  endfacet
  facet normal 0.406736 0.913546 0
    outer loop
      vertex 28.8627 11.8882 2.5
      vertex 31.25 10.8253 -2.5
      vertex 28.8627 11.8882 -2.5
    endloop
  endfacet
  facet normal -0.994522 -0.104529 0
    outer loop
      vertex -37.2268 -2.5989 -2.5
      vertex -37.5 0 2.5
      vertex -37.5 0 -2.5
    endloop
  endfacet
  facet normal -0.994522 -0.104529 0
    outer loop
      vertex -37.5 0 2.5
      vertex -37.2268 -2.5989 -2.5
      vertex -37.2268 -2.5989 2.5
    endloop
  endfacet
  facet normal 0.406736 -0.913546 0
    outer loop
      vertex 28.8627 -11.8882 -2.5
      vertex 31.25 -10.8253 2.5
      vertex 28.8627 -11.8882 2.5
    endloop
  endfacet
  facet normal 0.406736 -0.913546 0
    outer loop
      vertex 31.25 -10.8253 2.5
      vertex 28.8627 -11.8882 -2.5
      vertex 31.25 -10.8253 -2.5
    endloop
  endfacet
  facet normal 0.743145 -0.669131 0
    outer loop
      vertex 33.3641 -9.28931 2.5
      vertex 35.1127 -7.34731 -2.5
      vertex 35.1127 -7.34731 2.5
    endloop
  endfacet
  facet normal 0.743145 -0.669131 0
    outer loop
      vertex 35.1127 -7.34731 -2.5
      vertex 33.3641 -9.28931 2.5
      vertex 33.3641 -9.28931 -2.5
    endloop
  endfacet
  facet normal 0.951057 -0.309017 0
    outer loop
      vertex 36.4193 -5.08421 2.5
      vertex 37.2268 -2.5989 -2.5
      vertex 37.2268 -2.5989 2.5
    endloop
  endfacet
  facet normal 0.951057 -0.309017 0
    outer loop
      vertex 37.2268 -2.5989 -2.5
      vertex 36.4193 -5.08421 2.5
      vertex 36.4193 -5.08421 -2.5
    endloop
  endfacet
  facet normal -0.406736 -0.913546 0
    outer loop
      vertex -31.25 -10.8253 -2.5
      vertex -28.8627 -11.8882 2.5
      vertex -31.25 -10.8253 2.5
    endloop
  endfacet
  facet normal -0.406736 -0.913546 -0
    outer loop
      vertex -28.8627 -11.8882 2.5
      vertex -31.25 -10.8253 -2.5
      vertex -28.8627 -11.8882 -2.5
    endloop
  endfacet
  facet normal -0.866025 -0.5 0
    outer loop
      vertex -35.1127 -7.34731 -2.5
      vertex -36.4193 -5.08421 2.5
      vertex -36.4193 -5.08421 -2.5
    endloop
  endfacet
  facet normal -0.866025 -0.5 0
    outer loop
      vertex -36.4193 -5.08421 2.5
      vertex -35.1127 -7.34731 -2.5
      vertex -35.1127 -7.34731 2.5
    endloop
  endfacet
  facet normal 0.382683 -0.92388 0
    outer loop
      vertex -1.76777 23.0178 -2.5
      vertex 5.27356e-15 23.75 2.5
      vertex -1.76777 23.0178 2.5
    endloop
  endfacet
  facet normal 0.382683 -0.92388 0
    outer loop
      vertex 5.27356e-15 23.75 2.5
      vertex -1.76777 23.0178 -2.5
      vertex 5.27356e-15 23.75 -2.5
    endloop
  endfacet
  facet normal 0.382683 0.92388 -0
    outer loop
      vertex 4.16334e-15 18.75 -2.5
      vertex -1.76777 19.4822 2.5
      vertex 4.16334e-15 18.75 2.5
    endloop
  endfacet
  facet normal 0.382683 0.92388 0
    outer loop
      vertex -1.76777 19.4822 2.5
      vertex 4.16334e-15 18.75 -2.5
      vertex -1.76777 19.4822 -2.5
    endloop
  endfacet
  facet normal 0.92388 -0.382683 0
    outer loop
      vertex -2.5 21.25 2.5
      vertex -1.76777 23.0178 -2.5
      vertex -1.76777 23.0178 2.5
    endloop
  endfacet
  facet normal 0.92388 -0.382683 0
    outer loop
      vertex -1.76777 23.0178 -2.5
      vertex -2.5 21.25 2.5
      vertex -2.5 21.25 -2.5
    endloop
  endfacet
  facet normal 0.92388 0.382683 0
    outer loop
      vertex -1.76777 19.4822 2.5
      vertex -2.5 21.25 -2.5
      vertex -2.5 21.25 2.5
    endloop
  endfacet
  facet normal 0.92388 0.382683 0
    outer loop
      vertex -2.5 21.25 -2.5
      vertex -1.76777 19.4822 2.5
      vertex -1.76777 19.4822 -2.5
    endloop
  endfacet
  facet normal -0.92388 -0.382683 0
    outer loop
      vertex 2.5 21.25 -2.5
      vertex 1.76777 23.0178 2.5
      vertex 1.76777 23.0178 -2.5
    endloop
  endfacet
  facet normal -0.92388 -0.382683 0
    outer loop
      vertex 1.76777 23.0178 2.5
      vertex 2.5 21.25 -2.5
      vertex 2.5 21.25 2.5
    endloop
  endfacet
  facet normal -0.382683 0.92388 0
    outer loop
      vertex 1.76777 19.4822 -2.5
      vertex 4.16334e-15 18.75 2.5
      vertex 1.76777 19.4822 2.5
    endloop
  endfacet
  facet normal -0.382683 0.92388 0
    outer loop
      vertex 4.16334e-15 18.75 2.5
      vertex 1.76777 19.4822 -2.5
      vertex 4.16334e-15 18.75 -2.5
    endloop
  endfacet
  facet normal -0.92388 0.382683 0
    outer loop
      vertex 1.76777 19.4822 -2.5
      vertex 2.5 21.25 2.5
      vertex 2.5 21.25 -2.5
    endloop
  endfacet
  facet normal -0.92388 0.382683 0
    outer loop
      vertex 2.5 21.25 2.5
      vertex 1.76777 19.4822 -2.5
      vertex 1.76777 19.4822 2.5
    endloop
  endfacet
  facet normal -0.382683 -0.92388 0
    outer loop
      vertex 5.27356e-15 23.75 -2.5
      vertex 1.76777 23.0178 2.5
      vertex 5.27356e-15 23.75 2.5
    endloop
  endfacet
  facet normal -0.382683 -0.92388 -0
    outer loop
      vertex 1.76777 23.0178 2.5
      vertex 5.27356e-15 23.75 -2.5
      vertex 1.76777 23.0178 -2.5
    endloop
  endfacet
  facet normal 0.382683 -0.92388 0
    outer loop
      vertex -1.76777 -19.4822 -2.5
      vertex -4.16334e-15 -18.75 2.5
      vertex -1.76777 -19.4822 2.5
    endloop
  endfacet
  facet normal 0.382683 -0.92388 0
    outer loop
      vertex -4.16334e-15 -18.75 2.5
      vertex -1.76777 -19.4822 -2.5
      vertex -4.16334e-15 -18.75 -2.5
    endloop
  endfacet
  facet normal 0.382683 0.92388 -0
    outer loop
      vertex -5.27356e-15 -23.75 -2.5
      vertex -1.76777 -23.0178 2.5
      vertex -5.27356e-15 -23.75 2.5
    endloop
  endfacet
  facet normal 0.382683 0.92388 0
    outer loop
      vertex -1.76777 -23.0178 2.5
      vertex -5.27356e-15 -23.75 -2.5
      vertex -1.76777 -23.0178 -2.5
    endloop
  endfacet
  facet normal 0.92388 -0.382683 0
    outer loop
      vertex -2.5 -21.25 2.5
      vertex -1.76777 -19.4822 -2.5
      vertex -1.76777 -19.4822 2.5
    endloop
  endfacet
  facet normal 0.92388 -0.382683 0
    outer loop
      vertex -1.76777 -19.4822 -2.5
      vertex -2.5 -21.25 2.5
      vertex -2.5 -21.25 -2.5
    endloop
  endfacet
  facet normal -0.92388 -0.382683 0
    outer loop
      vertex 2.5 -21.25 -2.5
      vertex 1.76777 -19.4822 2.5
      vertex 1.76777 -19.4822 -2.5
    endloop
  endfacet
  facet normal -0.92388 -0.382683 0
    outer loop
      vertex 1.76777 -19.4822 2.5
      vertex 2.5 -21.25 -2.5
      vertex 2.5 -21.25 2.5
    endloop
  endfacet
  facet normal 0.92388 0.382683 0
    outer loop
      vertex -1.76777 -23.0178 2.5
      vertex -2.5 -21.25 -2.5
      vertex -2.5 -21.25 2.5
    endloop
  endfacet
  facet normal 0.92388 0.382683 0
    outer loop
      vertex -2.5 -21.25 -2.5
      vertex -1.76777 -23.0178 2.5
      vertex -1.76777 -23.0178 -2.5
    endloop
  endfacet
  facet normal -0.382683 -0.92388 0
    outer loop
      vertex -4.16334e-15 -18.75 -2.5
      vertex 1.76777 -19.4822 2.5
      vertex -4.16334e-15 -18.75 2.5
    endloop
  endfacet
  facet normal -0.382683 -0.92388 -0
    outer loop
      vertex 1.76777 -19.4822 2.5
      vertex -4.16334e-15 -18.75 -2.5
      vertex 1.76777 -19.4822 -2.5
    endloop
  endfacet
  facet normal -0.92388 0.382683 0
    outer loop
      vertex 1.76777 -23.0178 -2.5
      vertex 2.5 -21.25 2.5
      vertex 2.5 -21.25 -2.5
    endloop
  endfacet
  facet normal -0.92388 0.382683 0
    outer loop
      vertex 2.5 -21.25 2.5
      vertex 1.76777 -23.0178 -2.5
      vertex 1.76777 -23.0178 2.5
    endloop
  endfacet
  facet normal -0.382683 0.92388 0
    outer loop
      vertex 1.76777 -23.0178 -2.5
      vertex -5.27356e-15 -23.75 2.5
      vertex 1.76777 -23.0178 2.5
    endloop
  endfacet
  facet normal -0.382683 0.92388 0
    outer loop
      vertex -5.27356e-15 -23.75 2.5
      vertex 1.76777 -23.0178 -2.5
      vertex -5.27356e-15 -23.75 -2.5
    endloop
  endfacet
  facet normal 0.382683 -0.92388 0
    outer loop
      vertex -1.76777 33.0178 -2.5
      vertex 7.49401e-15 33.75 2.5
      vertex -1.76777 33.0178 2.5
    endloop
  endfacet
  facet normal 0.382683 -0.92388 0
    outer loop
      vertex 7.49401e-15 33.75 2.5
      vertex -1.76777 33.0178 -2.5
      vertex 7.49401e-15 33.75 -2.5
    endloop
  endfacet
  facet normal 0.92388 0.382683 0
    outer loop
      vertex -1.76777 29.4822 2.5
      vertex -2.5 31.25 -2.5
      vertex -2.5 31.25 2.5
    endloop
  endfacet
  facet normal 0.92388 0.382683 0
    outer loop
      vertex -2.5 31.25 -2.5
      vertex -1.76777 29.4822 2.5
      vertex -1.76777 29.4822 -2.5
    endloop
  endfacet
  facet normal 0.92388 -0.382683 0
    outer loop
      vertex -2.5 31.25 2.5
      vertex -1.76777 33.0178 -2.5
      vertex -1.76777 33.0178 2.5
    endloop
  endfacet
  facet normal 0.92388 -0.382683 0
    outer loop
      vertex -1.76777 33.0178 -2.5
      vertex -2.5 31.25 2.5
      vertex -2.5 31.25 -2.5
    endloop
  endfacet
  facet normal 0.382683 0.92388 -0
    outer loop
      vertex 6.38378e-15 28.75 -2.5
      vertex -1.76777 29.4822 2.5
      vertex 6.38378e-15 28.75 2.5
    endloop
  endfacet
  facet normal 0.382683 0.92388 0
    outer loop
      vertex -1.76777 29.4822 2.5
      vertex 6.38378e-15 28.75 -2.5
      vertex -1.76777 29.4822 -2.5
    endloop
  endfacet
  facet normal -0.382683 0.92388 0
    outer loop
      vertex 1.76777 29.4822 -2.5
      vertex 6.38378e-15 28.75 2.5
      vertex 1.76777 29.4822 2.5
    endloop
  endfacet
  facet normal -0.382683 0.92388 0
    outer loop
      vertex 6.38378e-15 28.75 2.5
      vertex 1.76777 29.4822 -2.5
      vertex 6.38378e-15 28.75 -2.5
    endloop
  endfacet
  facet normal -0.923879 -0.382684 0
    outer loop
      vertex 2.5 31.25 -2.5
      vertex 1.76777 33.0178 2.5
      vertex 1.76777 33.0178 -2.5
    endloop
  endfacet
  facet normal -0.923879 -0.382684 0
    outer loop
      vertex 1.76777 33.0178 2.5
      vertex 2.5 31.25 -2.5
      vertex 2.5 31.25 2.5
    endloop
  endfacet
  facet normal -0.92388 0.382683 0
    outer loop
      vertex 1.76777 29.4822 -2.5
      vertex 2.5 31.25 2.5
      vertex 2.5 31.25 -2.5
    endloop
  endfacet
  facet normal -0.92388 0.382683 0
    outer loop
      vertex 2.5 31.25 2.5
      vertex 1.76777 29.4822 -2.5
      vertex 1.76777 29.4822 2.5
    endloop
  endfacet
  facet normal -0.382684 -0.923879 0
    outer loop
      vertex 7.49401e-15 33.75 -2.5
      vertex 1.76777 33.0178 2.5
      vertex 7.49401e-15 33.75 2.5
    endloop
  endfacet
  facet normal -0.382684 -0.923879 -0
    outer loop
      vertex 1.76777 33.0178 2.5
      vertex 7.49401e-15 33.75 -2.5
      vertex 1.76777 33.0178 -2.5
    endloop
  endfacet
  facet normal 0.382683 -0.92388 0
    outer loop
      vertex -1.76777 -29.4822 -2.5
      vertex -6.38378e-15 -28.75 2.5
      vertex -1.76777 -29.4822 2.5
    endloop
  endfacet
  facet normal 0.382683 -0.92388 0
    outer loop
      vertex -6.38378e-15 -28.75 2.5
      vertex -1.76777 -29.4822 -2.5
      vertex -6.38378e-15 -28.75 -2.5
    endloop
  endfacet
  facet normal 0.382684 0.923879 -0
    outer loop
      vertex -7.49401e-15 -33.75 -2.5
      vertex -1.76777 -33.0178 2.5
      vertex -7.49401e-15 -33.75 2.5
    endloop
  endfacet
  facet normal 0.382684 0.923879 0
    outer loop
      vertex -1.76777 -33.0178 2.5
      vertex -7.49401e-15 -33.75 -2.5
      vertex -1.76777 -33.0178 -2.5
    endloop
  endfacet
  facet normal 0.92388 -0.382683 0
    outer loop
      vertex -2.5 -31.25 2.5
      vertex -1.76777 -29.4822 -2.5
      vertex -1.76777 -29.4822 2.5
    endloop
  endfacet
  facet normal 0.92388 -0.382683 0
    outer loop
      vertex -1.76777 -29.4822 -2.5
      vertex -2.5 -31.25 2.5
      vertex -2.5 -31.25 -2.5
    endloop
  endfacet
  facet normal -0.92388 -0.382683 0
    outer loop
      vertex 2.5 -31.25 -2.5
      vertex 1.76777 -29.4822 2.5
      vertex 1.76777 -29.4822 -2.5
    endloop
  endfacet
  facet normal -0.92388 -0.382683 0
    outer loop
      vertex 1.76777 -29.4822 2.5
      vertex 2.5 -31.25 -2.5
      vertex 2.5 -31.25 2.5
    endloop
  endfacet
  facet normal 0.923879 0.382684 0
    outer loop
      vertex -1.76777 -33.0178 2.5
      vertex -2.5 -31.25 -2.5
      vertex -2.5 -31.25 2.5
    endloop
  endfacet
  facet normal 0.923879 0.382684 0
    outer loop
      vertex -2.5 -31.25 -2.5
      vertex -1.76777 -33.0178 2.5
      vertex -1.76777 -33.0178 -2.5
    endloop
  endfacet
  facet normal -0.382683 -0.92388 0
    outer loop
      vertex -6.38378e-15 -28.75 -2.5
      vertex 1.76777 -29.4822 2.5
      vertex -6.38378e-15 -28.75 2.5
    endloop
  endfacet
  facet normal -0.382683 -0.92388 -0
    outer loop
      vertex 1.76777 -29.4822 2.5
      vertex -6.38378e-15 -28.75 -2.5
      vertex 1.76777 -29.4822 -2.5
    endloop
  endfacet
  facet normal -0.92388 0.382683 0
    outer loop
      vertex 1.76777 -33.0178 -2.5
      vertex 2.5 -31.25 2.5
      vertex 2.5 -31.25 -2.5
    endloop
  endfacet
  facet normal -0.92388 0.382683 0
    outer loop
      vertex 2.5 -31.25 2.5
      vertex 1.76777 -33.0178 -2.5
      vertex 1.76777 -33.0178 2.5
    endloop
  endfacet
  facet normal -0.382683 0.92388 0
    outer loop
      vertex 1.76777 -33.0178 -2.5
      vertex -7.49401e-15 -33.75 2.5
      vertex 1.76777 -33.0178 2.5
    endloop
  endfacet
  facet normal -0.382683 0.92388 0
    outer loop
      vertex -7.49401e-15 -33.75 2.5
      vertex 1.76777 -33.0178 -2.5
      vertex -7.49401e-15 -33.75 -2.5
    endloop
  endfacet
  facet normal -0.104529 0.994522 0
    outer loop
      vertex 8.32667e-15 37.5 -2.5
      vertex -2.5989 37.2268 2.5
      vertex 8.32667e-15 37.5 2.5
    endloop
  endfacet
  facet normal -0.104529 0.994522 0
    outer loop
      vertex -2.5989 37.2268 2.5
      vertex 8.32667e-15 37.5 -2.5
      vertex -2.5989 37.2268 -2.5
    endloop
  endfacet
  facet normal -1 0 0
    outer loop
      vertex -12.4315 -26.3066 -2.5
      vertex -12.4315 -12.4315 2.5
      vertex -12.4315 -12.4315 -2.5
    endloop
  endfacet
  facet normal -1 -0 0
    outer loop
      vertex -12.4315 -12.4315 2.5
      vertex -12.4315 -26.3066 -2.5
      vertex -12.4315 -26.3066 2.5
    endloop
  endfacet
  facet normal -1 0 0
    outer loop
      vertex -12.4315 12.4315 -2.5
      vertex -12.4315 26.3066 2.5
      vertex -12.4315 26.3066 -2.5
    endloop
  endfacet
  facet normal -1 -0 0
    outer loop
      vertex -12.4315 26.3066 2.5
      vertex -12.4315 12.4315 -2.5
      vertex -12.4315 12.4315 2.5
    endloop
  endfacet
  facet normal 0.978148 -0.207912 0
    outer loop
      vertex 11.8882 -28.8627 2.5
      vertex 12.4315 -26.3066 -2.5
      vertex 12.4315 -26.3066 2.5
    endloop
  endfacet
  facet normal 0.978148 -0.207912 0
    outer loop
      vertex 12.4315 -26.3066 -2.5
      vertex 11.8882 -28.8627 2.5
      vertex 11.8882 -28.8627 -2.5
    endloop
  endfacet
  facet normal -0.978148 0.207912 0
    outer loop
      vertex -12.4315 26.3066 -2.5
      vertex -11.8882 28.8627 2.5
      vertex -11.8882 28.8627 -2.5
    endloop
  endfacet
  facet normal -0.978148 0.207912 0
    outer loop
      vertex -11.8882 28.8627 2.5
      vertex -12.4315 26.3066 -2.5
      vertex -12.4315 26.3066 2.5
    endloop
  endfacet
  facet normal -0.669131 -0.743145 0
    outer loop
      vertex -9.28931 -33.3641 -2.5
      vertex -7.34731 -35.1127 2.5
      vertex -9.28931 -33.3641 2.5
    endloop
  endfacet
  facet normal -0.669131 -0.743145 -0
    outer loop
      vertex -7.34731 -35.1127 2.5
      vertex -9.28931 -33.3641 -2.5
      vertex -7.34731 -35.1127 -2.5
    endloop
  endfacet
  facet normal -0.913546 -0.406736 0
    outer loop
      vertex -10.8253 -31.25 -2.5
      vertex -11.8882 -28.8627 2.5
      vertex -11.8882 -28.8627 -2.5
    endloop
  endfacet
  facet normal -0.913546 -0.406736 0
    outer loop
      vertex -11.8882 -28.8627 2.5
      vertex -10.8253 -31.25 -2.5
      vertex -10.8253 -31.25 2.5
    endloop
  endfacet
  facet normal 0.5 0.866025 -0
    outer loop
      vertex 7.34731 35.1127 -2.5
      vertex 5.08421 36.4193 2.5
      vertex 7.34731 35.1127 2.5
    endloop
  endfacet
  facet normal 0.5 0.866025 0
    outer loop
      vertex 5.08421 36.4193 2.5
      vertex 7.34731 35.1127 -2.5
      vertex 5.08421 36.4193 -2.5
    endloop
  endfacet
  facet normal 1 -0 0
    outer loop
      vertex 12.4315 12.4315 2.5
      vertex 12.4315 26.3066 -2.5
      vertex 12.4315 26.3066 2.5
    endloop
  endfacet
  facet normal 1 0 0
    outer loop
      vertex 12.4315 26.3066 -2.5
      vertex 12.4315 12.4315 2.5
      vertex 12.4315 12.4315 -2.5
    endloop
  endfacet
  facet normal 1 -0 0
    outer loop
      vertex 12.4315 -26.3066 2.5
      vertex 12.4315 -12.4315 -2.5
      vertex 12.4315 -12.4315 2.5
    endloop
  endfacet
  facet normal 1 0 0
    outer loop
      vertex 12.4315 -12.4315 -2.5
      vertex 12.4315 -26.3066 2.5
      vertex 12.4315 -26.3066 -2.5
    endloop
  endfacet
  facet normal 0.669131 -0.743145 0
    outer loop
      vertex 7.34731 -35.1127 -2.5
      vertex 9.28931 -33.3641 2.5
      vertex 7.34731 -35.1127 2.5
    endloop
  endfacet
  facet normal 0.669131 -0.743145 0
    outer loop
      vertex 9.28931 -33.3641 2.5
      vertex 7.34731 -35.1127 -2.5
      vertex 9.28931 -33.3641 -2.5
    endloop
  endfacet
  facet normal -0.669131 0.743145 0
    outer loop
      vertex -7.34731 35.1127 -2.5
      vertex -9.28931 33.3641 2.5
      vertex -7.34731 35.1127 2.5
    endloop
  endfacet
  facet normal -0.669131 0.743145 0
    outer loop
      vertex -9.28931 33.3641 2.5
      vertex -7.34731 35.1127 -2.5
      vertex -9.28931 33.3641 -2.5
    endloop
  endfacet
  facet normal -0.309017 0.951057 0
    outer loop
      vertex -2.5989 37.2268 -2.5
      vertex -5.08421 36.4193 2.5
      vertex -2.5989 37.2268 2.5
    endloop
  endfacet
  facet normal -0.309017 0.951057 0
    outer loop
      vertex -5.08421 36.4193 2.5
      vertex -2.5989 37.2268 -2.5
      vertex -5.08421 36.4193 -2.5
    endloop
  endfacet
  facet normal -0.809017 0.587786 0
    outer loop
      vertex -10.8253 31.25 -2.5
      vertex -9.28931 33.3641 2.5
      vertex -9.28931 33.3641 -2.5
    endloop
  endfacet
  facet normal -0.809017 0.587786 0
    outer loop
      vertex -9.28931 33.3641 2.5
      vertex -10.8253 31.25 -2.5
      vertex -10.8253 31.25 2.5
    endloop
  endfacet
  facet normal -0.309017 -0.951057 0
    outer loop
      vertex -5.08421 -36.4193 -2.5
      vertex -2.5989 -37.2268 2.5
      vertex -5.08421 -36.4193 2.5
    endloop
  endfacet
  facet normal -0.309017 -0.951057 -0
    outer loop
      vertex -2.5989 -37.2268 2.5
      vertex -5.08421 -36.4193 -2.5
      vertex -2.5989 -37.2268 -2.5
    endloop
  endfacet
  facet normal -0.5 -0.866025 0
    outer loop
      vertex -7.34731 -35.1127 -2.5
      vertex -5.08421 -36.4193 2.5
      vertex -7.34731 -35.1127 2.5
    endloop
  endfacet
  facet normal -0.5 -0.866025 -0
    outer loop
      vertex -5.08421 -36.4193 2.5
      vertex -7.34731 -35.1127 -2.5
      vertex -5.08421 -36.4193 -2.5
    endloop
  endfacet
  facet normal -0.104529 -0.994522 0
    outer loop
      vertex -2.5989 -37.2268 -2.5
      vertex -8.32667e-15 -37.5 2.5
      vertex -2.5989 -37.2268 2.5
    endloop
  endfacet
  facet normal -0.104529 -0.994522 -0
    outer loop
      vertex -8.32667e-15 -37.5 2.5
      vertex -2.5989 -37.2268 -2.5
      vertex -8.32667e-15 -37.5 -2.5
    endloop
  endfacet
  facet normal -0.809017 -0.587785 0
    outer loop
      vertex -9.28931 -33.3641 -2.5
      vertex -10.8253 -31.25 2.5
      vertex -10.8253 -31.25 -2.5
    endloop
  endfacet
  facet normal -0.809017 -0.587785 0
    outer loop
      vertex -10.8253 -31.25 2.5
      vertex -9.28931 -33.3641 -2.5
      vertex -9.28931 -33.3641 2.5
    endloop
  endfacet
  facet normal -0.978148 -0.207912 0
    outer loop
      vertex -11.8882 -28.8627 -2.5
      vertex -12.4315 -26.3066 2.5
      vertex -12.4315 -26.3066 -2.5
    endloop
  endfacet
  facet normal -0.978148 -0.207912 0
    outer loop
      vertex -12.4315 -26.3066 2.5
      vertex -11.8882 -28.8627 -2.5
      vertex -11.8882 -28.8627 2.5
    endloop
  endfacet
  facet normal 0.104529 0.994522 -0
    outer loop
      vertex 2.5989 37.2268 -2.5
      vertex 8.32667e-15 37.5 2.5
      vertex 2.5989 37.2268 2.5
    endloop
  endfacet
  facet normal 0.104529 0.994522 0
    outer loop
      vertex 8.32667e-15 37.5 2.5
      vertex 2.5989 37.2268 -2.5
      vertex 8.32667e-15 37.5 -2.5
    endloop
  endfacet
  facet normal 0.978148 0.207912 0
    outer loop
      vertex 12.4315 26.3066 2.5
      vertex 11.8882 28.8627 -2.5
      vertex 11.8882 28.8627 2.5
    endloop
  endfacet
  facet normal 0.978148 0.207912 0
    outer loop
      vertex 11.8882 28.8627 -2.5
      vertex 12.4315 26.3066 2.5
      vertex 12.4315 26.3066 -2.5
    endloop
  endfacet
  facet normal 0.809017 0.587786 0
    outer loop
      vertex 10.8253 31.25 2.5
      vertex 9.28931 33.3641 -2.5
      vertex 9.28931 33.3641 2.5
    endloop
  endfacet
  facet normal 0.809017 0.587786 0
    outer loop
      vertex 9.28931 33.3641 -2.5
      vertex 10.8253 31.25 2.5
      vertex 10.8253 31.25 -2.5
    endloop
  endfacet
  facet normal 0.809017 -0.587786 0
    outer loop
      vertex 9.28931 -33.3641 2.5
      vertex 10.8253 -31.25 -2.5
      vertex 10.8253 -31.25 2.5
    endloop
  endfacet
  facet normal 0.809017 -0.587786 0
    outer loop
      vertex 10.8253 -31.25 -2.5
      vertex 9.28931 -33.3641 2.5
      vertex 9.28931 -33.3641 -2.5
    endloop
  endfacet
  facet normal 0.309017 -0.951057 0
    outer loop
      vertex 2.5989 -37.2268 -2.5
      vertex 5.08421 -36.4193 2.5
      vertex 2.5989 -37.2268 2.5
    endloop
  endfacet
  facet normal 0.309017 -0.951057 0
    outer loop
      vertex 5.08421 -36.4193 2.5
      vertex 2.5989 -37.2268 -2.5
      vertex 5.08421 -36.4193 -2.5
    endloop
  endfacet
  facet normal -0.5 0.866025 0
    outer loop
      vertex -5.08421 36.4193 -2.5
      vertex -7.34731 35.1127 2.5
      vertex -5.08421 36.4193 2.5
    endloop
  endfacet
  facet normal -0.5 0.866025 0
    outer loop
      vertex -7.34731 35.1127 2.5
      vertex -5.08421 36.4193 -2.5
      vertex -7.34731 35.1127 -2.5
    endloop
  endfacet
  facet normal -0.913546 0.406736 0
    outer loop
      vertex -11.8882 28.8627 -2.5
      vertex -10.8253 31.25 2.5
      vertex -10.8253 31.25 -2.5
    endloop
  endfacet
  facet normal -0.913546 0.406736 0
    outer loop
      vertex -10.8253 31.25 2.5
      vertex -11.8882 28.8627 -2.5
      vertex -11.8882 28.8627 2.5
    endloop
  endfacet
  facet normal 0.104529 -0.994522 0
    outer loop
      vertex -8.32667e-15 -37.5 -2.5
      vertex 2.5989 -37.2268 2.5
      vertex -8.32667e-15 -37.5 2.5
    endloop
  endfacet
  facet normal 0.104529 -0.994522 0
    outer loop
      vertex 2.5989 -37.2268 2.5
      vertex -8.32667e-15 -37.5 -2.5
      vertex 2.5989 -37.2268 -2.5
    endloop
  endfacet
  facet normal 0.913546 0.406736 0
    outer loop
      vertex 11.8882 28.8627 2.5
      vertex 10.8253 31.25 -2.5
      vertex 10.8253 31.25 2.5
    endloop
  endfacet
  facet normal 0.913546 0.406736 0
    outer loop
      vertex 10.8253 31.25 -2.5
      vertex 11.8882 28.8627 2.5
      vertex 11.8882 28.8627 -2.5
    endloop
  endfacet
  facet normal 0.669131 0.743145 -0
    outer loop
      vertex 9.28931 33.3641 -2.5
      vertex 7.34731 35.1127 2.5
      vertex 9.28931 33.3641 2.5
    endloop
  endfacet
  facet normal 0.669131 0.743145 0
    outer loop
      vertex 7.34731 35.1127 2.5
      vertex 9.28931 33.3641 -2.5
      vertex 7.34731 35.1127 -2.5
    endloop
  endfacet
  facet normal 0.309017 0.951057 -0
    outer loop
      vertex 5.08421 36.4193 -2.5
      vertex 2.5989 37.2268 2.5
      vertex 5.08421 36.4193 2.5
    endloop
  endfacet
  facet normal 0.309017 0.951057 0
    outer loop
      vertex 2.5989 37.2268 2.5
      vertex 5.08421 36.4193 -2.5
      vertex 2.5989 37.2268 -2.5
    endloop
  endfacet
  facet normal 0.913546 -0.406736 0
    outer loop
      vertex 10.8253 -31.25 2.5
      vertex 11.8882 -28.8627 -2.5
      vertex 11.8882 -28.8627 2.5
    endloop
  endfacet
  facet normal 0.913546 -0.406736 0
    outer loop
      vertex 11.8882 -28.8627 -2.5
      vertex 10.8253 -31.25 2.5
      vertex 10.8253 -31.25 -2.5
    endloop
  endfacet
  facet normal 0.5 -0.866025 0
    outer loop
      vertex 5.08421 -36.4193 -2.5
      vertex 7.34731 -35.1127 2.5
      vertex 5.08421 -36.4193 2.5
    endloop
  endfacet
  facet normal 0.5 -0.866025 0
    outer loop
      vertex 7.34731 -35.1127 2.5
      vertex 5.08421 -36.4193 -2.5
      vertex 7.34731 -35.1127 -2.5
    endloop
  endfacet
endsolid OpenSCAD_Model
